<svg width="119" height="110" viewBox="0 0 119 110" fill="none" xmlns="http://www.w3.org/2000/svg">
<ellipse cx="60.7212" cy="107.012" rx="40.8716" ry="1.61324" fill="#E5EDFA"/>
<path d="M59.6664 107.549C85.2212 107.549 105.937 86.8345 105.937 61.2817C105.937 35.7288 85.2212 15.014 59.6664 15.014C34.1117 15.014 13.3955 35.7288 13.3955 61.2817C13.3955 86.8345 34.1117 107.549 59.6664 107.549Z" fill="#19355C"/>
<path d="M59.6671 103.719C83.1064 103.719 102.108 84.719 102.108 61.2814C102.108 37.8438 83.1064 18.8439 59.6671 18.8439C36.2278 18.8439 17.2266 37.8438 17.2266 61.2814C17.2266 84.719 36.2278 103.719 59.6671 103.719Z" fill="white"/>
<path d="M59.5137 67.1038C62.6446 67.1038 65.1826 64.5659 65.1826 61.4353C65.1826 58.3046 62.6446 55.7667 59.5137 55.7667C56.3828 55.7667 53.8447 58.3046 53.8447 61.4353C53.8447 64.5659 56.3828 67.1038 59.5137 67.1038Z" fill="#CB4B4B"/>
<path d="M60.7376 20.9894H58.2861V25.5855H60.7376V20.9894Z" fill="#CB4B4B"/>
<path d="M60.7376 97.2852H58.2861V101.881H60.7376V97.2852Z" fill="#CB4B4B"/>
<path d="M23.6611 62.6606V60.2094H19.0647V62.6606H23.6611Z" fill="#CB4B4B"/>
<path d="M99.9629 62.6606V60.2094H95.3664V62.6606H99.9629Z" fill="#CB4B4B"/>
<path d="M57.8799 63.8962L59.9749 59.1062L86.2258 73.6439L57.8799 63.8962Z" fill="#CB4B4B"/>
<path d="M65.6383 3.83008L53.6875 3.83008V17.6184L65.6383 17.6184V3.83008Z" fill="#19355C"/>
<path d="M59.6692 7.6602C67.2849 7.6602 73.4586 5.9454 73.4586 3.8301C73.4586 1.71479 67.2849 0 59.6692 0C52.0536 0 45.8799 1.71479 45.8799 3.8301C45.8799 5.9454 52.0536 7.6602 59.6692 7.6602Z" fill="#19355C"/>
</svg>
