<svg width="195" height="149" viewBox="0 0 195 149" fill="none" xmlns="http://www.w3.org/2000/svg">
<path opacity="0.1" d="M111.106 20.7536C99.2226 20.3386 87.9048 16.4425 77.0968 12.1832C66.2889 7.924 55.5845 3.19928 43.9852 0.952083C36.5247 -0.500399 27.9921 -0.707896 21.9828 3.35352C16.2005 7.25862 14.3281 14.0051 13.3261 20.2563C12.5694 24.9595 12.125 29.9167 14.1965 34.3232C15.6361 37.3824 18.1881 39.954 19.9549 42.8825C26.1005 53.0796 21.7565 65.6526 15.0983 75.6069C11.9771 80.2763 8.35014 84.7368 5.93921 89.7015C3.52827 94.6662 2.41381 100.368 4.52346 105.44C6.61266 110.47 11.5947 114.241 16.9912 116.896C27.9512 122.291 40.8613 123.833 53.4585 124.708C81.3373 126.645 109.362 125.806 137.314 124.966C147.659 124.657 158.048 124.343 168.224 122.719C173.876 121.819 179.709 120.386 183.813 116.931C189.02 112.548 190.311 105.125 186.821 99.6261C180.967 90.4056 164.787 88.1155 160.69 78.22C158.441 72.7718 160.751 66.706 164.025 61.6548C171.046 50.8165 182.814 41.309 183.433 28.9227C183.859 20.4153 178.201 11.8955 169.454 7.86866C160.286 3.64955 147.574 4.17936 140.81 11.163C133.839 18.3556 121.596 21.1243 111.106 20.7536Z" fill="#CB4B4B"/>
<path d="M47.6502 23.0042H0V71.3553H47.6502V23.0042Z" fill="#E8E9ED"/>
<path d="M195 23.0042H147.35V71.3553H195V23.0042Z" fill="#E8E9ED"/>
<path opacity="0.5" d="M26.6955 5.96588L26.2184 5.47204C26.209 5.46127 26.1974 5.45266 26.1845 5.44682C26.1716 5.44097 26.1575 5.43801 26.1434 5.43814C26.1292 5.43777 26.1151 5.44063 26.1021 5.44649C26.0892 5.45235 26.0776 5.46108 26.0684 5.47204L22.7816 8.82589L21.5846 7.61272C21.575 7.60222 21.5633 7.59386 21.5504 7.58813C21.5374 7.58241 21.5234 7.57946 21.5093 7.57946C21.4952 7.57946 21.4812 7.58241 21.4682 7.58813C21.4553 7.59386 21.4436 7.60222 21.434 7.61272L20.9569 8.09688C20.9464 8.10696 20.9381 8.11908 20.9324 8.13252C20.9268 8.14595 20.9238 8.16042 20.9238 8.17503C20.9238 8.18965 20.9268 8.20412 20.9324 8.21756C20.9381 8.23099 20.9464 8.24311 20.9569 8.25319L22.466 9.78314C22.5471 9.87421 22.6596 9.93016 22.7802 9.93946C22.8994 9.92898 23.0109 9.87548 23.0945 9.78867L26.6989 6.12289C26.7178 6.10136 26.7282 6.07355 26.7282 6.04473C26.7282 6.01591 26.7178 5.9881 26.6989 5.96657L26.6955 5.96588Z" fill="#CB4B4B"/>
<path opacity="0.5" d="M23.8244 2.7725C24.9453 2.77336 26.0313 3.16852 26.8973 3.89068C27.7633 4.61283 28.3558 5.61731 28.5739 6.73301C28.7919 7.8487 28.6221 9.0066 28.0932 10.0095C27.5643 11.0123 26.7091 11.7981 25.6733 12.233C24.6376 12.6678 23.4852 12.7248 22.4127 12.3943C21.3401 12.0638 20.4136 11.3662 19.7911 10.4204C19.1685 9.47449 18.8884 8.33887 18.9984 7.20694C19.1084 6.07501 19.6018 5.01678 20.3944 4.21253C20.8448 3.75554 21.3796 3.39314 21.9681 3.14604C22.5567 2.89895 23.1874 2.77201 23.8244 2.7725ZM23.8244 2.00684C22.5284 2.00773 21.2728 2.46451 20.2715 3.29938C19.2702 4.13424 18.5851 5.29554 18.3329 6.58544C18.0807 7.87535 18.2771 9.21407 18.8885 10.3736C19.4999 11.533 20.4886 12.4416 21.6861 12.9444C22.8836 13.4472 24.2159 13.5132 25.456 13.1311C26.696 12.749 27.7672 11.9424 28.487 10.8489C29.2068 9.7553 29.5307 8.44234 29.4035 7.13365C29.2763 5.82496 28.7059 4.60149 27.7894 3.67166C27.2686 3.14354 26.6504 2.72469 25.9701 2.43904C25.2898 2.15338 24.5606 2.00652 23.8244 2.00684Z" fill="#CB4B4B"/>
<path opacity="0.8" d="M63.4954 21.8644L62.8969 21.2419C62.8851 21.2288 62.8706 21.2184 62.8545 21.2114C62.8384 21.2043 62.8211 21.2008 62.8036 21.2011C62.7857 21.2003 62.7678 21.2036 62.7513 21.2106C62.7348 21.2177 62.7201 21.2284 62.7081 21.2419L58.5713 25.4714L57.0635 23.9435C57.0515 23.9306 57.037 23.9203 57.021 23.9133C57.0049 23.9063 56.9876 23.9027 56.9701 23.9027C56.9523 23.9026 56.9347 23.9062 56.9183 23.9132C56.9019 23.9202 56.8871 23.9305 56.8747 23.9435L56.2708 24.5563C56.2576 24.5688 56.2471 24.584 56.2399 24.6008C56.2327 24.6177 56.229 24.6358 56.229 24.6542C56.229 24.6725 56.2327 24.6907 56.2399 24.7075C56.2471 24.7243 56.2576 24.7395 56.2708 24.752L58.1691 26.6748C58.2718 26.7893 58.4138 26.8593 58.5658 26.8706C58.7143 26.8576 58.8534 26.7917 58.9584 26.6845L63.494 22.0566C63.5151 22.0304 63.5266 21.9975 63.5266 21.9636C63.5266 21.9297 63.5151 21.8969 63.494 21.8706L63.4954 21.8644Z" fill="#CB4B4B"/>
<path opacity="0.8" d="M59.8807 17.8375C61.2931 17.8378 62.6618 18.335 63.7535 19.2444C64.8451 20.1538 65.5923 21.4192 65.8677 22.8249C66.143 24.2306 65.9296 25.6897 65.2636 26.9536C64.5977 28.2175 63.5205 29.208 62.2155 29.7564C60.9106 30.3048 59.4586 30.3771 58.107 29.9611C56.7554 29.545 55.5878 28.6663 54.803 27.4746C54.0183 26.283 53.665 24.8521 53.8034 23.4258C53.9418 21.9995 54.5632 20.6659 55.5619 19.6524C56.129 19.0768 56.8023 18.6203 57.5433 18.3089C58.2844 17.9975 59.0786 17.8373 59.8807 17.8375ZM59.8807 16.874C58.4851 16.874 57.1209 17.294 55.9605 18.0807C54.8001 18.8675 53.8957 19.9857 53.3616 21.294C52.8275 22.6024 52.6878 24.042 52.9601 25.4309C53.2323 26.8198 53.9043 28.0956 54.8912 29.097C55.878 30.0983 57.1353 30.7803 58.5041 31.0565C59.8729 31.3328 61.2917 31.191 62.581 30.6491C63.8704 30.1072 64.9724 29.1894 65.7478 28.012C66.5231 26.8345 66.937 25.4502 66.937 24.0341C66.937 22.1351 66.1936 20.3139 64.8702 18.9712C63.5469 17.6284 61.7522 16.874 59.8807 16.874Z" fill="#CB4B4B"/>
<path opacity="0.5" d="M171.174 2.77256C172.295 2.77342 173.381 3.16858 174.247 3.89074C175.113 4.61289 175.706 5.61737 175.924 6.73307C176.142 7.84876 175.972 9.00666 175.443 10.0095C174.914 11.0124 174.059 11.7982 173.023 12.233C171.987 12.6679 170.835 12.7249 169.762 12.3944C168.69 12.0639 167.763 11.3663 167.141 10.4204C166.518 9.47455 166.238 8.33893 166.348 7.207C166.458 6.07507 166.952 5.01684 167.744 4.21259C168.195 3.7556 168.729 3.3932 169.318 3.1461C169.907 2.89901 170.537 2.77207 171.174 2.77256ZM171.174 2.0069C169.878 2.00779 168.623 2.46457 167.621 3.29944C166.62 4.1343 165.935 5.2956 165.683 6.5855C165.431 7.87541 165.627 9.21413 166.238 10.3736C166.85 11.5331 167.838 12.4416 169.036 12.9444C170.233 13.4472 171.566 13.5132 172.806 13.1311C174.046 12.749 175.117 11.9425 175.837 10.8489C176.557 9.75536 176.88 8.4424 176.753 7.13371C176.626 5.82502 176.056 4.60155 175.139 3.67172C174.619 3.14322 174.001 2.72399 173.32 2.43798C172.64 2.15196 171.911 2.00478 171.174 2.00482V2.0069Z" fill="#CB4B4B"/>
<path opacity="0.8" d="M134.86 17.8375C133.243 17.8387 131.693 18.4914 130.551 19.652C129.408 20.8126 128.767 22.3862 128.767 24.0266C128.768 25.6671 129.411 27.2402 130.554 28.4C131.697 29.5597 133.248 30.2113 134.865 30.2113C136.481 30.2113 138.032 29.5597 139.175 28.4C140.319 27.2402 140.961 25.6671 140.962 24.0266C140.962 22.3862 140.321 20.8126 139.178 19.652C138.036 18.4914 136.486 17.8387 134.869 17.8375H134.86ZM134.869 16.874C136.744 16.8752 138.541 17.6319 139.866 18.9776C141.191 20.3233 141.935 22.1479 141.934 24.0501C141.934 25.9524 141.189 27.7765 139.863 29.1214C138.537 30.4663 136.739 31.2218 134.865 31.2218C132.99 31.2218 131.192 30.4663 129.866 29.1214C128.54 27.7765 127.795 25.9524 127.795 24.0501C127.794 22.1479 128.538 20.3233 129.863 18.9776C131.188 17.6319 132.985 16.8752 134.86 16.874H134.869Z" fill="#CB4B4B"/>
<path d="M97.1932 29.2014C99.0595 29.2028 100.868 29.8606 102.31 31.0629C103.751 32.2651 104.738 33.9374 105.101 35.795C105.464 37.6525 105.182 39.5803 104.301 41.25C103.421 42.9198 101.997 44.2281 100.272 44.9522C98.548 45.6764 96.6295 45.7714 94.8437 45.2213C93.0579 44.6711 91.5154 43.5098 90.4788 41.935C89.4421 40.3603 88.9756 38.4696 89.1586 36.585C89.3417 34.7004 90.1629 32.9385 91.4825 31.5994C92.2324 30.8385 93.1227 30.235 94.1026 29.8235C95.0825 29.4121 96.1327 29.2007 97.1932 29.2014ZM97.1932 27.9267C95.348 27.9267 93.5443 28.4819 92.0101 29.5221C90.4758 30.5623 89.2801 32.0408 88.5739 33.7707C87.8678 35.5005 87.6831 37.4039 88.043 39.2403C88.403 41.0766 89.2915 42.7635 90.5963 44.0874C91.901 45.4114 93.5634 46.313 95.3732 46.6782C97.1829 47.0435 99.0587 46.8561 100.763 46.1395C102.468 45.423 103.925 44.2097 104.95 42.6529C105.976 41.0961 106.523 39.2658 106.523 37.3934C106.523 34.8827 105.54 32.4748 103.79 30.6994C102.041 28.9241 99.6676 27.9267 97.1932 27.9267Z" fill="#CB4B4B"/>
<path d="M86.4317 35.6775H33.3298V89.5604H86.4317V35.6775Z" fill="#F3F5F7"/>
<path d="M161.411 35.6775H108.309V89.5604H161.411V35.6775Z" fill="#F3F5F7"/>
<path opacity="0.1" d="M22.4728 31.5877H4.76123V33.5852H22.4728V31.5877Z" fill="black"/>
<path opacity="0.1" d="M173.636 31.5877H155.925V33.5852H173.636V31.5877Z" fill="black"/>
<path d="M128.75 115.217C128.75 115.217 133.351 106.947 140.281 104.566C143.193 103.585 145.714 101.672 147.464 99.1143C148.285 97.8912 148.994 96.5948 149.583 95.241" stroke="#535461" stroke-width="2" stroke-miterlimit="10"/>
<path d="M153.937 93.7173C153.148 94.494 149.47 95.2991 149.47 95.2991C149.47 95.2991 150.373 91.5932 151.163 90.8144C151.351 90.6295 151.573 90.4841 151.816 90.3863C152.06 90.2885 152.32 90.2403 152.581 90.2445C152.843 90.2487 153.101 90.3051 153.342 90.4106C153.582 90.5161 153.799 90.6686 153.981 90.8593C154.164 91.0501 154.307 91.2754 154.403 91.5223C154.5 91.7693 154.547 92.0331 154.543 92.2986C154.539 92.5642 154.483 92.8264 154.379 93.0702C154.275 93.3139 154.125 93.5345 153.937 93.7194V93.7173Z" fill="#CB4B4B"/>
<path d="M151.859 100.421C150.779 100.639 147.269 99.2865 147.269 99.2865C147.269 99.2865 150.01 96.6782 151.09 96.4562C151.601 96.3684 152.127 96.4864 152.554 96.7852C152.981 97.084 153.276 97.5399 153.377 98.0562C153.478 98.5725 153.376 99.1083 153.094 99.5499C152.812 99.9914 152.371 100.304 151.865 100.421H151.859Z" fill="#CB4B4B"/>
<path d="M144.285 107.678C143.246 107.305 140.883 104.343 140.883 104.343C140.883 104.343 144.555 103.491 145.586 103.858C146.085 104.034 146.495 104.403 146.726 104.886C146.957 105.368 146.99 105.924 146.817 106.431C146.644 106.937 146.28 107.354 145.804 107.588C145.329 107.822 144.781 107.855 144.282 107.68L144.285 107.678Z" fill="#CB4B4B"/>
<path d="M137.345 111.857C136.258 111.671 133.434 109.153 133.434 109.153C133.434 109.153 136.91 107.687 137.993 107.867C138.253 107.909 138.501 108.002 138.725 108.142C138.949 108.281 139.144 108.465 139.297 108.681C139.451 108.897 139.561 109.142 139.621 109.401C139.682 109.661 139.691 109.93 139.648 110.193C139.605 110.456 139.511 110.708 139.372 110.934C139.233 111.16 139.052 111.356 138.837 111.511C138.623 111.666 138.381 111.776 138.125 111.835C137.869 111.894 137.604 111.902 137.345 111.857Z" fill="#CB4B4B"/>
<path d="M144.197 96.3906C144.197 97.5083 146.187 100.748 146.187 100.748C146.187 100.748 148.177 97.5118 148.177 96.3954C148.182 96.1269 148.134 95.8599 148.036 95.6103C147.939 95.3607 147.793 95.1335 147.607 94.9418C147.422 94.7501 147.2 94.5978 146.956 94.4938C146.712 94.3899 146.45 94.3363 146.185 94.3363C145.921 94.3363 145.658 94.3899 145.414 94.4938C145.17 94.5978 144.949 94.7501 144.763 94.9418C144.578 95.1335 144.432 95.3607 144.334 95.6103C144.236 95.8599 144.188 96.1269 144.193 96.3954L144.197 96.3906Z" fill="#CB4B4B"/>
<path d="M136.131 101.386C136.459 102.452 139.315 104.937 139.315 104.937C139.315 104.937 140.262 101.244 139.934 100.178C139.773 99.67 139.421 99.2472 138.954 99.0016C138.487 98.756 137.944 98.7076 137.442 98.867C136.94 99.0264 136.521 99.3805 136.275 99.8523C136.029 100.324 135.978 100.875 136.131 101.386Z" fill="#CB4B4B"/>
<path d="M128.949 107.329C129.096 108.436 131.494 111.374 131.494 111.374C131.494 111.374 133.044 107.897 132.899 106.79C132.829 106.259 132.553 105.778 132.133 105.452C131.713 105.127 131.183 104.985 130.659 105.056C130.135 105.127 129.661 105.407 129.341 105.833C129.02 106.26 128.879 106.798 128.95 107.329H128.949Z" fill="#0053CC"/>
<path opacity="0.25" d="M153.937 93.7172C153.148 94.4939 149.47 95.299 149.47 95.299C149.47 95.299 150.373 91.5931 151.163 90.8143C151.351 90.6294 151.573 90.484 151.816 90.3862C152.06 90.2884 152.32 90.2402 152.581 90.2444C152.843 90.2486 153.101 90.305 153.342 90.4105C153.582 90.516 153.799 90.6685 153.981 90.8592C154.164 91.05 154.307 91.2753 154.403 91.5222C154.5 91.7692 154.547 92.0329 154.543 92.2985C154.539 92.5641 154.483 92.8263 154.379 93.07C154.275 93.3138 154.125 93.5344 153.937 93.7192V93.7172Z" fill="black"/>
<path opacity="0.25" d="M151.859 100.421C150.779 100.639 147.269 99.2865 147.269 99.2865C147.269 99.2865 150.01 96.6782 151.09 96.4562C151.601 96.3684 152.126 96.4864 152.553 96.7852C152.98 97.084 153.276 97.5399 153.377 98.0562C153.477 98.5725 153.376 99.1083 153.094 99.5499C152.811 99.9914 152.371 100.304 151.865 100.421H151.859Z" fill="black"/>
<path opacity="0.25" d="M144.285 107.678C143.246 107.305 140.883 104.343 140.883 104.343C140.883 104.343 144.555 103.491 145.586 103.858C146.085 104.034 146.495 104.403 146.726 104.886C146.957 105.368 146.99 105.924 146.817 106.431C146.644 106.937 146.28 107.354 145.804 107.588C145.329 107.822 144.781 107.855 144.282 107.68L144.285 107.678Z" fill="black"/>
<path opacity="0.25" d="M137.345 111.857C136.258 111.671 133.434 109.153 133.434 109.153C133.434 109.153 136.91 107.687 137.993 107.867C138.253 107.909 138.501 108.002 138.725 108.142C138.949 108.281 139.144 108.465 139.297 108.681C139.451 108.897 139.561 109.142 139.621 109.401C139.682 109.661 139.69 109.93 139.648 110.193C139.605 110.456 139.511 110.708 139.372 110.934C139.233 111.16 139.051 111.356 138.837 111.511C138.623 111.666 138.381 111.776 138.125 111.835C137.869 111.894 137.604 111.902 137.345 111.857Z" fill="black"/>
<path opacity="0.25" d="M144.197 96.3907C144.197 97.5084 146.187 100.748 146.187 100.748C146.187 100.748 148.177 97.5118 148.177 96.3955C148.182 96.1269 148.134 95.86 148.036 95.6104C147.939 95.3608 147.793 95.1335 147.607 94.9418C147.422 94.7501 147.2 94.5978 146.956 94.4939C146.712 94.3899 146.45 94.3364 146.185 94.3364C145.921 94.3364 145.658 94.3899 145.414 94.4939C145.17 94.5978 144.949 94.7501 144.763 94.9418C144.578 95.1335 144.432 95.3608 144.334 95.6104C144.236 95.86 144.188 96.1269 144.193 96.3955L144.197 96.3907Z" fill="black"/>
<path opacity="0.25" d="M136.131 101.386C136.459 102.452 139.315 104.937 139.315 104.937C139.315 104.937 140.262 101.244 139.933 100.178C139.773 99.67 139.42 99.2472 138.954 99.0016C138.487 98.756 137.943 98.7076 137.442 98.867C136.94 99.0264 136.52 99.3805 136.275 99.8523C136.029 100.324 135.977 100.875 136.131 101.386Z" fill="black"/>
<path opacity="0.25" d="M128.949 107.329C129.096 108.436 131.494 111.374 131.494 111.374C131.494 111.374 133.044 107.897 132.899 106.79C132.829 106.259 132.553 105.778 132.133 105.452C131.713 105.127 131.183 104.985 130.659 105.056C130.135 105.127 129.661 105.407 129.341 105.833C129.02 106.26 128.879 106.798 128.95 107.329H128.949Z" fill="black"/>
<path d="M129.014 115.054C129.014 115.054 129.919 105.603 135.301 100.574C137.572 98.4774 139.113 95.6904 139.691 92.6306C139.953 91.1765 140.084 89.7011 140.082 88.2227" stroke="#535461" stroke-width="2" stroke-miterlimit="10"/>
<path d="M143.457 85.0384C143.048 86.0758 140.005 88.321 140.005 88.321C140.005 88.321 139.35 84.5632 139.761 83.5271C139.959 83.0297 140.343 82.6323 140.829 82.4223C141.315 82.2123 141.864 82.2069 142.354 82.4073C142.844 82.6077 143.236 82.9975 143.443 83.4909C143.65 83.9843 143.655 84.541 143.458 85.0384H143.457Z" fill="#CB4B4B"/>
<path d="M144.232 92.0234C143.332 92.666 139.577 92.8769 139.577 92.8769C139.577 92.8769 141.046 89.3592 141.94 88.718C142.373 88.4295 142.899 88.3231 143.407 88.4213C143.916 88.5195 144.367 88.8146 144.665 89.2441C144.962 89.6736 145.084 90.2039 145.003 90.7227C144.922 91.2414 144.646 91.7079 144.232 92.0234Z" fill="#CB4B4B"/>
<path d="M140.205 101.772C139.103 101.865 135.763 100.123 135.763 100.123C135.763 100.123 138.775 97.8368 139.871 97.7435C140.135 97.715 140.402 97.7402 140.656 97.8178C140.91 97.8954 141.146 98.0237 141.351 98.1951C141.555 98.3666 141.724 98.5778 141.847 98.8164C141.97 99.0549 142.045 99.316 142.067 99.5843C142.089 99.8526 142.059 100.123 141.977 100.379C141.895 100.635 141.763 100.872 141.589 101.075C141.416 101.279 141.204 101.446 140.966 101.565C140.729 101.685 140.47 101.755 140.205 101.772Z" fill="#CB4B4B"/>
<path d="M135.524 108.449C134.457 108.726 130.869 107.584 130.869 107.584C130.869 107.584 133.459 104.818 134.523 104.534C135.034 104.4 135.577 104.476 136.033 104.748C136.488 105.02 136.819 105.464 136.951 105.983C137.084 106.502 137.008 107.053 136.74 107.515C136.473 107.977 136.035 108.312 135.524 108.447V108.449Z" fill="#CB4B4B"/>
<path d="M135.617 91.4902C136.063 92.5111 139.175 94.6573 139.175 94.6573C139.175 94.6573 139.706 90.8788 139.262 89.8579C139.157 89.6135 139.005 89.3925 138.816 89.2077C138.626 89.0229 138.403 88.8779 138.158 88.7811C137.913 88.6843 137.652 88.6376 137.389 88.6436C137.126 88.6497 136.867 88.7084 136.627 88.8164C136.387 88.9243 136.17 89.0794 135.989 89.2727C135.808 89.4661 135.667 89.6938 135.573 89.9428C135.479 90.1918 135.434 90.4572 135.442 90.7237C135.45 90.9902 135.509 91.2526 135.617 91.4957V91.4902Z" fill="#CB4B4B"/>
<path d="M130.237 99.3716C130.972 100.21 134.567 101.308 134.567 101.308C134.567 101.308 133.957 97.5408 133.232 96.7025C132.883 96.2994 132.391 96.0534 131.864 96.0186C131.336 95.9838 130.817 96.163 130.42 96.5168C130.023 96.8705 129.78 97.3699 129.746 97.905C129.712 98.4401 129.888 98.9672 130.237 99.3702V99.3716Z" fill="#CB4B4B"/>
<path d="M126.045 107.759C126.619 108.711 129.987 110.413 129.987 110.413C129.987 110.413 130.017 106.595 129.437 105.64C129.301 105.412 129.121 105.213 128.909 105.055C128.697 104.898 128.457 104.784 128.201 104.721C127.946 104.658 127.681 104.647 127.421 104.689C127.161 104.731 126.912 104.824 126.688 104.963C126.465 105.103 126.27 105.286 126.116 105.502C125.962 105.719 125.852 105.964 125.792 106.223C125.732 106.483 125.723 106.752 125.766 107.015C125.808 107.278 125.902 107.53 126.041 107.757L126.045 107.759Z" fill="#0053CC"/>
<path opacity="0.1" d="M57.8959 47.1791H40.1843V49.1766H57.8959V47.1791Z" fill="black"/>
<path opacity="0.1" d="M83.3964 64.7354H72.8223V66.7329H83.3964V64.7354Z" fill="black"/>
<path opacity="0.1" d="M88.4807 78.139H72.8223V80.1365H88.4807V78.139Z" fill="black"/>
<path opacity="0.1" d="M57.8959 54.2181H40.1843V56.2156H57.8959V54.2181Z" fill="black"/>
<path opacity="0.1" d="M137.598 47.1791H119.886V49.1766H137.598V47.1791Z" fill="black"/>
<path opacity="0.1" d="M137.598 54.2181H119.886V56.2156H137.598V54.2181Z" fill="black"/>
<path d="M94.6836 40.1767L95.1792 39.5169C95.656 39.9912 96.296 40.2586 96.9637 40.2625C97.8007 40.2625 98.4217 39.8475 98.4217 39.1745C98.4217 38.4441 97.8266 37.9634 96.1777 37.9634V37.2026C97.6467 37.2026 98.1974 36.7129 98.1974 36.0662C98.1974 35.4811 97.7033 35.1159 96.9705 35.1159C96.3997 35.1329 95.8544 35.3592 95.4355 35.7529L94.9085 35.1159C95.4873 34.5904 96.2341 34.2956 97.0107 34.2859C98.2792 34.2859 99.2144 34.9042 99.2144 35.9887C99.2144 36.7496 98.6637 37.2517 97.8703 37.5277V37.5685C98.281 37.6129 98.663 37.803 98.9491 38.1053C99.2351 38.4076 99.4069 38.8027 99.4339 39.2209C99.4339 40.3967 98.3324 41.1043 97.0325 41.1043C96.5994 41.1199 96.1677 41.0458 95.7638 40.8863C95.3599 40.7268 94.9923 40.4854 94.6836 40.1767Z" fill="#CB4B4B"/>
<g opacity="0.8">
<path opacity="0.8" d="M135.446 23.0077C135.446 22.6501 135.478 22.1936 135.496 21.8361H135.453C135.248 22.1528 135.021 22.4676 134.815 22.7823L133.346 24.694H137.247V25.4638H132.339V24.8116L135.27 20.8989H136.348V27.1196H135.45L135.446 23.0077Z" fill="#CB4B4B"/>
</g>
<g opacity="0.5">
<path opacity="0.5" d="M169.266 9.66422L169.599 9.20426C169.92 9.52403 170.352 9.70394 170.802 9.70572C170.934 9.72004 171.067 9.70641 171.193 9.66568C171.319 9.62496 171.436 9.55804 171.535 9.46918C171.634 9.38031 171.714 9.27146 171.77 9.14952C171.825 9.02759 171.855 8.89524 171.858 8.76091C171.858 8.17369 171.449 7.85761 170.841 7.85761C170.533 7.855 170.232 7.94502 169.975 8.11629L169.63 7.89081L169.766 5.69064H172.336V6.29584H170.372L170.264 7.5014C170.503 7.39119 170.763 7.33525 171.026 7.33748C171.221 7.31188 171.419 7.32966 171.607 7.38958C171.794 7.44951 171.967 7.55015 172.113 7.68452C172.258 7.81889 172.373 7.98377 172.449 8.16773C172.526 8.35169 172.562 8.55032 172.555 8.74985C172.55 8.96424 172.503 9.1754 172.415 9.37049C172.327 9.56558 172.201 9.74052 172.045 9.88467C171.888 10.0288 171.705 10.1392 171.505 10.209C171.305 10.2788 171.093 10.3067 170.883 10.2909C170.586 10.2994 170.29 10.2485 170.013 10.1409C169.736 10.0334 169.482 9.8714 169.266 9.66422Z" fill="#CB4B4B"/>
</g>
<path opacity="0.1" d="M129.385 52.785H63.7441V119.391H129.385V52.785Z" fill="#CB4B4B"/>
<path d="M131.588 49.6179H65.9473V116.224H131.588V49.6179Z" fill="white"/>
<path opacity="0.5" d="M124.712 56.9958H72.8223V58.9933H124.712V56.9958Z" fill="#CB4B4B"/>
<path opacity="0.1" d="M105.864 71.4376H72.8223V73.4351H105.864V71.4376Z" fill="black"/>
<path opacity="0.1" d="M104.881 84.8426H72.8223V86.8401H104.881V84.8426Z" fill="black"/>
<path opacity="0.1" d="M116.524 91.5447H72.8223V93.5423H116.524V91.5447Z" fill="black"/>
<path opacity="0.5" d="M115.222 85.0183L114.997 84.7838C114.992 84.7789 114.986 84.775 114.98 84.7725C114.974 84.77 114.967 84.7689 114.96 84.7693C114.954 84.769 114.947 84.7701 114.941 84.7726C114.935 84.7751 114.93 84.779 114.925 84.7838L113.357 86.3843L112.788 85.8061C112.783 85.801 112.777 85.7969 112.771 85.794C112.765 85.7912 112.758 85.7896 112.751 85.7895C112.744 85.7897 112.738 85.7912 112.732 85.7941C112.726 85.797 112.72 85.801 112.716 85.8061L112.486 86.0371C112.481 86.042 112.477 86.0477 112.475 86.0542C112.472 86.0606 112.471 86.0675 112.471 86.0745C112.471 86.0814 112.472 86.0883 112.475 86.0948C112.477 86.1012 112.481 86.107 112.486 86.1118L113.206 86.8422C113.245 86.8855 113.299 86.9121 113.357 86.9169C113.413 86.9121 113.465 86.8877 113.505 86.8477L115.222 85.0964C115.232 85.0856 115.237 85.0717 115.237 85.0574C115.237 85.043 115.232 85.0291 115.222 85.0183Z" fill="#CB4B4B"/>
<path opacity="0.5" d="M113.854 83.5015C114.39 83.5015 114.908 83.6898 115.322 84.0344C115.736 84.379 116.019 84.8584 116.123 85.3911C116.228 85.9237 116.147 86.4767 115.894 86.9556C115.642 87.4346 115.234 87.81 114.739 88.0178C114.245 88.2256 113.695 88.253 113.183 88.0953C112.67 87.9377 112.228 87.6047 111.931 87.1531C111.633 86.7015 111.499 86.1593 111.552 85.6188C111.604 85.0783 111.84 84.573 112.218 84.189C112.433 83.971 112.688 83.7981 112.969 83.6801C113.25 83.5622 113.551 83.5015 113.854 83.5015ZM113.854 83.1287C113.326 83.1284 112.809 83.2871 112.37 83.5848C111.93 83.8825 111.588 84.3057 111.385 84.801C111.183 85.2963 111.13 85.8413 111.233 86.3672C111.336 86.8931 111.59 87.3762 111.964 87.7555C112.337 88.1347 112.813 88.393 113.331 88.4977C113.85 88.6024 114.387 88.5488 114.875 88.3437C115.363 88.1386 115.78 87.7911 116.074 87.3454C116.368 86.8996 116.524 86.3754 116.524 85.8393C116.524 85.1206 116.243 84.4314 115.742 83.9231C115.242 83.4148 114.563 83.129 113.854 83.1287Z" fill="#CB4B4B"/>
<path opacity="0.5" d="M115.222 73.2602L114.997 73.0257C114.992 73.0208 114.986 73.0169 114.98 73.0144C114.974 73.0119 114.967 73.0108 114.96 73.0112C114.954 73.0109 114.947 73.012 114.941 73.0145C114.935 73.017 114.93 73.0208 114.925 73.0257L113.357 74.6262L112.788 74.048C112.783 74.0429 112.777 74.0388 112.771 74.0359C112.765 74.033 112.758 74.0315 112.751 74.0314C112.744 74.0316 112.738 74.0331 112.732 74.036C112.726 74.0388 112.72 74.0429 112.716 74.048L112.486 74.279C112.481 74.2838 112.477 74.2896 112.475 74.2961C112.472 74.3025 112.471 74.3094 112.471 74.3163C112.471 74.3233 112.472 74.3302 112.475 74.3366C112.477 74.3431 112.481 74.3489 112.486 74.3537L113.206 75.0841C113.245 75.1274 113.299 75.154 113.357 75.1588C113.413 75.154 113.465 75.1296 113.505 75.0896L115.222 73.3383C115.232 73.3275 115.237 73.3136 115.237 73.2993C115.237 73.2849 115.232 73.271 115.222 73.2602Z" fill="#CB4B4B"/>
<path opacity="0.5" d="M113.854 71.7433C114.39 71.7433 114.908 71.9317 115.322 72.2762C115.736 72.6208 116.019 73.1002 116.123 73.6329C116.228 74.1656 116.147 74.7185 115.894 75.1975C115.642 75.6764 115.234 76.0518 114.739 76.2596C114.245 76.4674 113.695 76.4948 113.183 76.3372C112.67 76.1795 112.228 75.8465 111.931 75.3949C111.633 74.9433 111.499 74.4011 111.552 73.8606C111.604 73.3201 111.84 72.8148 112.218 72.4308C112.433 72.2128 112.688 72.0399 112.969 71.9219C113.25 71.804 113.551 71.7433 113.854 71.7433ZM113.854 71.3705C113.326 71.3702 112.809 71.5289 112.37 71.8266C111.93 72.1243 111.588 72.5476 111.385 73.0428C111.183 73.5381 111.13 74.0832 111.233 74.6091C111.336 75.135 111.59 75.6181 111.964 75.9973C112.337 76.3765 112.813 76.6348 113.331 76.7395C113.85 76.8442 114.387 76.7906 114.875 76.5855C115.363 76.3804 115.78 76.033 116.074 75.5872C116.368 75.1414 116.524 74.6173 116.524 74.0811C116.524 73.3624 116.243 72.6732 115.742 72.1649C115.242 71.6566 114.563 71.3709 113.854 71.3705Z" fill="#CB4B4B"/>
<path opacity="0.1" d="M94.1048 148C101.346 148 107.217 147.001 107.217 145.768C107.217 144.535 101.346 143.536 94.1048 143.536C86.8633 143.536 80.9929 144.535 80.9929 145.768C80.9929 147.001 86.8633 148 94.1048 148Z" fill="#0053CC"/>
<path d="M24.0379 129.184C24.0379 129.184 24.7195 130.092 23.7223 131.462C22.725 132.833 21.8968 133.989 22.2315 134.844C22.2315 134.844 23.7393 132.299 24.9676 132.263C26.1959 132.228 25.3868 130.713 24.0379 129.184Z" fill="#CB4B4B"/>
<path opacity="0.1" d="M24.0377 129.184C24.096 129.272 24.1419 129.368 24.174 129.469C25.371 130.898 26.0103 132.23 24.8557 132.264C23.7834 132.296 22.4965 134.241 22.1877 134.733C22.1975 134.771 22.2098 134.808 22.2246 134.845C22.2246 134.845 23.7323 132.299 24.9606 132.264C26.1889 132.229 25.3866 130.713 24.0377 129.184Z" fill="black"/>
<path d="M25.3063 130.344C25.3063 130.664 25.2716 130.924 25.2273 130.924C25.183 130.924 25.1482 130.664 25.1482 130.344C25.1482 130.024 25.1925 130.175 25.2361 130.175C25.2797 130.175 25.3063 130.022 25.3063 130.344Z" fill="#FFD037"/>
<path d="M25.7445 130.723C25.467 130.876 25.2264 130.969 25.2067 130.931C25.1869 130.892 25.39 130.744 25.6695 130.585C25.9489 130.425 25.8365 130.544 25.8528 130.585C25.8692 130.626 26.0198 130.57 25.7445 130.723Z" fill="#FFD037"/>
<path d="M20.4237 129.184C20.4237 129.184 19.7421 130.092 20.7393 131.462C21.7366 132.833 22.5627 133.989 22.2301 134.844C22.2301 134.844 20.7209 132.299 19.494 132.263C18.2671 132.228 19.0721 130.713 20.4237 129.184Z" fill="#CB4B4B"/>
<path opacity="0.1" d="M20.4237 129.184C20.3653 129.272 20.3194 129.368 20.2874 129.469C19.0884 130.898 18.451 132.23 19.6057 132.264C20.6779 132.296 21.9655 134.241 22.2736 134.733C22.2627 134.77 22.2518 134.807 22.2368 134.845C22.2368 134.845 20.7277 132.299 19.5008 132.264C18.2738 132.229 19.072 130.713 20.4237 129.184Z" fill="black"/>
<path d="M19.1511 130.344C19.1511 130.664 19.1859 130.924 19.2302 130.924C19.2745 130.924 19.3093 130.664 19.3093 130.344C19.3093 130.024 19.265 130.175 19.2213 130.175C19.1777 130.175 19.1511 130.022 19.1511 130.344Z" fill="#FFD037"/>
<path d="M18.7162 130.723C18.9889 130.876 19.2322 130.969 19.254 130.931C19.2758 130.892 19.0707 130.744 18.7912 130.585C18.5117 130.425 18.6242 130.544 18.6078 130.585C18.5915 130.626 18.4388 130.57 18.7162 130.723Z" fill="#FFD037"/>
<path opacity="0.1" d="M22.2301 141.789C26.1798 141.789 29.3817 141.29 29.3817 140.675C29.3817 140.059 26.1798 139.56 22.2301 139.56C18.2803 139.56 15.0784 140.059 15.0784 140.675C15.0784 141.29 18.2803 141.789 22.2301 141.789Z" fill="#0053CC"/>
<path d="M25.9108 133.62L25.876 133.905L25.8283 134.304L25.8079 134.471L25.7601 134.872L25.7397 135.039L25.6899 135.438L25.1392 139.991C25.0915 140.397 24.4357 140.714 23.6464 140.714H20.806C20.0167 140.714 19.363 140.397 19.3153 139.991L18.7646 135.438L18.7168 135.039L18.6964 134.872L18.6487 134.471L18.6282 134.304L18.5805 133.905L18.5437 133.62C18.5164 133.391 18.8709 133.197 19.3167 133.197H25.1337C25.585 133.198 25.9394 133.391 25.9108 133.62Z" fill="#65617D"/>
<path d="M25.8753 133.903L25.8276 134.304H18.6296L18.5798 133.903H25.8753Z" fill="#9D9CB5"/>
<path d="M25.8088 134.472L25.761 134.872H18.6993L18.6516 134.472H25.8088Z" fill="#9D9CB5"/>
<path d="M25.7412 135.038L25.6915 135.439H18.7674L18.7197 135.038H25.7412Z" fill="#9D9CB5"/>
<path d="M87.1703 105.527L85.1753 105.752C85.1753 105.752 84.2887 109.801 85.1753 115.199C86.062 120.598 87.1703 125.996 87.1703 125.996C87.1703 125.996 88.057 143.54 88.5004 143.765C88.9437 143.99 92.9337 145.34 93.1554 143.99C93.3771 142.641 93.3771 111.825 93.3771 111.825L96.4804 126.671C96.4804 126.671 96.9237 145.34 97.8104 145.34C98.6971 145.34 101.579 145.115 101.579 143.54C101.579 141.966 102.244 121.272 102.244 121.272C102.244 121.272 102.022 105.977 101.135 105.527C100.249 105.078 87.1703 105.527 87.1703 105.527Z" fill="#2F2E41"/>
<path d="M88.9438 143.091C88.9438 143.091 86.9488 142.866 86.5055 143.091C86.0621 143.315 85.3971 144.89 86.5055 145.79C87.6138 146.689 90.4955 148.039 91.3822 148.039C92.2689 148.039 93.1555 147.589 93.1555 147.589L92.7122 143.765L88.9438 143.091Z" fill="#2F2E41"/>
<path d="M97.8105 144.215L98.0322 147.364C98.0322 147.364 100.914 147.814 101.136 147.364C101.357 146.914 103.574 145.79 103.796 145.565C104.017 145.34 104.239 142.866 102.909 142.641C101.579 142.416 101.136 143.091 101.136 143.091L97.8105 144.215Z" fill="#2F2E41"/>
<path d="M102.962 78.7628C102.962 78.7628 107.808 75.6005 107.696 73.4279C107.584 71.2553 104.662 64.4051 104.662 64.4051C104.662 64.4051 102.377 59.5834 101.468 61.5539C100.559 63.5244 102.662 65.622 102.662 65.622L104.019 72.3418L100.331 75.9125L102.962 78.7628Z" fill="#A0616A"/>
<path d="M90.9388 74.2623C93.1424 74.2623 94.9288 72.4497 94.9288 70.2136C94.9288 67.9776 93.1424 66.1649 90.9388 66.1649C88.7351 66.1649 86.9487 67.9776 86.9487 70.2136C86.9487 72.4497 88.7351 74.2623 90.9388 74.2623Z" fill="#A0616A"/>
<path d="M88.9436 72.6879L89.6086 76.9615L94.4853 76.0618C94.4853 76.0618 94.2636 71.7882 94.2636 71.3383C94.2636 70.8885 88.9436 72.6879 88.9436 72.6879Z" fill="#A0616A"/>
<path d="M88.7221 76.9615C88.7221 76.9615 94.2638 75.6119 94.9288 76.0618C95.5938 76.5116 98.9188 76.9615 98.9188 76.9615L102.687 82.8096L101.579 90.2323C101.579 90.2323 101.357 102.154 101.801 104.178C102.244 106.202 104.682 106.427 99.5839 106.877C94.4855 107.327 93.5988 106.652 90.0521 107.552C86.5054 108.452 83.6237 107.102 84.5104 106.202C85.3971 105.303 86.9488 90.9071 85.1754 89.5575C83.4021 88.2079 82.7371 81.2351 82.7371 81.2351C82.7371 81.2351 88.7221 78.0861 88.7221 76.9615Z" fill="#3F3D56"/>
<path d="M98.2539 77.6363L98.9189 76.9615L100.249 75.6119C100.249 75.6119 104.571 77.5238 104.35 78.1986C104.128 78.8734 102.687 82.8097 102.687 82.8097L100.692 83.4844L98.2539 77.6363Z" fill="#3F3D56"/>
<path d="M92.3312 65.3086L92.2903 64.9843C92.0191 64.9827 91.7494 65.0257 91.4917 65.1116C91.4654 64.916 91.4822 64.717 91.541 64.5288C91.2792 64.5971 91.0297 64.7072 90.8019 64.8549L90.6407 64.2629L88.4247 65.3711C87.6293 65.7689 86.7906 66.206 86.3359 66.9786C85.829 67.8399 85.9172 68.9468 86.2637 69.8863C86.6103 70.8259 87.1861 71.6573 87.6477 72.5445C87.8229 72.926 88.0335 73.2897 88.2766 73.6307C89.1131 74.6888 90.7413 74.9025 91.9206 74.264C92.3558 74.0283 92.7513 73.676 92.9303 73.2096C93.0374 72.9307 93.0619 72.6272 93.132 72.3364C93.2779 71.7318 93.4473 70.4837 93.9312 70.1012C94.1442 69.9329 94.5664 70.4909 94.7429 70.2836C95.1964 69.751 95.1013 68.9296 94.8196 68.2863C94.5492 67.6402 94.2332 67.0147 93.8741 66.4149C93.7219 66.1737 92.3263 65.2697 92.3312 65.3086Z" fill="#2F2E41"/>
<path d="M79.1903 86.6334C79.1903 86.6334 73.8703 91.8068 74.5353 94.5059C75.2003 97.2051 80.5204 105.078 80.5204 105.078C80.5204 105.078 85.6187 107.777 86.2837 105.078C86.9487 102.378 82.737 103.053 82.737 103.053L79.412 94.9558L83.1804 89.5575L79.1903 86.6334Z" fill="#A0616A"/>
<path d="M85.3971 81.685L82.7371 81.2352C82.7371 81.2352 80.7421 83.4845 80.077 84.3842C79.412 85.2839 78.082 87.5332 78.082 87.5332L82.7371 90.9071L86.2838 87.0833L85.3971 81.685Z" fill="#3F3D56"/>
</svg>
