<svg width="118" height="111" viewBox="0 0 118 111" fill="none" xmlns="http://www.w3.org/2000/svg">
<ellipse rx="35.2303" ry="2" transform="matrix(0.999999 -0.00133376 0.00133763 0.999999 46.2027 107.978)" fill="#E5EDFA"/>
<ellipse rx="13.7002" ry="2.5" transform="matrix(0.999999 -0.00133375 0.00133763 0.999999 89.766 107.982)" fill="#E5EDFA"/>
<path d="M13.4914 3.4291C14.7031 1.82286 16.2762 1.00258 17.834 1L74.7023 1C76.2601 1.00258 77.8333 1.82286 79.045 3.4291C80.2611 5.04114 80.9738 7.27322 80.9758 9.6415L80.9758 98.1585C80.9738 100.527 80.2611 102.759 79.045 104.371C77.8331 105.977 76.2597 106.798 74.7016 106.8L17.8348 106.8C16.2767 106.798 14.7033 105.977 13.4914 104.371C12.2754 102.759 11.5626 100.527 11.5605 98.1589L11.5605 9.64109C11.5626 7.27296 12.2754 5.04104 13.4914 3.4291Z" fill="white" stroke="#19355C" stroke-width="2"/>
<path opacity="0.1" d="M71.7251 9.36841L21.5953 9.36841C18.8934 9.36841 16.7031 11.5613 16.7031 14.2664L16.7031 25.6135C16.7031 28.3186 18.8934 30.5115 21.5953 30.5115L71.7251 30.5115C74.4269 30.5115 76.6173 28.3186 76.6173 25.6135V14.2664C76.6173 11.5613 74.4269 9.36841 71.7251 9.36841Z" fill="#CB4B4B"/>
<path opacity="0.4" d="M74.3879 9.78088L18.7982 9.78088C17.8547 9.78088 17.0898 10.5466 17.0898 11.4912L17.0898 28.5195C17.0898 29.4641 17.8547 30.2298 18.7982 30.2298L74.3879 30.2298C75.3314 30.2298 76.0962 29.4641 76.0962 28.5195V11.4912C76.0962 10.5466 75.3314 9.78088 74.3879 9.78088Z" fill="#CB4B4B"/>
<path opacity="0.1" d="M28.8977 39.3184H20.5972C19.5991 39.3184 18.79 40.1284 18.79 41.1277L18.79 50.7627C18.79 51.762 19.5991 52.572 20.5972 52.572H28.8977C29.8958 52.572 30.7049 51.762 30.7049 50.7627L30.7049 41.1277C30.7049 40.1284 29.8958 39.3184 28.8977 39.3184Z" fill="black"/>
<path opacity="0.1" d="M43.4602 39.3184H35.1597C34.1616 39.3184 33.3525 40.1284 33.3525 41.1277V50.7627C33.3525 51.762 34.1616 52.572 35.1597 52.572H43.4602C44.4583 52.572 45.2674 51.762 45.2674 50.7627V41.1277C45.2674 40.1284 44.4583 39.3184 43.4602 39.3184Z" fill="black"/>
<path opacity="0.1" d="M58.0227 39.3184H49.7222C48.7241 39.3184 47.915 40.1284 47.915 41.1277V50.7627C47.915 51.762 48.7241 52.572 49.7222 52.572H58.0227C59.0208 52.572 59.8299 51.762 59.8299 50.7627V41.1277C59.8299 40.1284 59.0208 39.3184 58.0227 39.3184Z" fill="black"/>
<path opacity="0.1" d="M69.5641 39.6H67.3097C64.6421 39.6 62.4795 41.7651 62.4795 44.436V48.0177C62.4795 50.6885 64.6421 52.8536 67.3097 52.8536H69.5641C72.2318 52.8536 74.3943 50.6885 74.3943 48.0177V44.436C74.3943 41.7651 72.2318 39.6 69.5641 39.6Z" fill="black"/>
<path opacity="0.8" d="M72.5872 39.3184H64.2866C63.2886 39.3184 62.4795 40.1284 62.4795 41.1277V50.7627C62.4795 51.762 63.2886 52.572 64.2866 52.572H72.5872C73.5852 52.572 74.3943 51.762 74.3943 50.7627V41.1277C74.3943 40.1284 73.5852 39.3184 72.5872 39.3184Z" fill="#CB4B4B"/>
<path opacity="0.1" d="M28.8977 53.8982H20.5972C19.5991 53.8982 18.79 54.7082 18.79 55.7075L18.79 65.3426C18.79 66.3418 19.5991 67.1519 20.5972 67.1519H28.8977C29.8958 67.1519 30.7049 66.3418 30.7049 65.3426L30.7049 55.7075C30.7049 54.7082 29.8958 53.8982 28.8977 53.8982Z" fill="black"/>
<path opacity="0.1" d="M43.4602 53.8982H35.1597C34.1616 53.8982 33.3525 54.7082 33.3525 55.7075V65.3426C33.3525 66.3418 34.1616 67.1519 35.1597 67.1519H43.4602C44.4583 67.1519 45.2674 66.3418 45.2674 65.3426V55.7075C45.2674 54.7082 44.4583 53.8982 43.4602 53.8982Z" fill="black"/>
<path opacity="0.1" d="M58.0227 53.8982H49.7222C48.7241 53.8982 47.915 54.7082 47.915 55.7075V65.3426C47.915 66.3418 48.7241 67.1519 49.7222 67.1519H58.0227C59.0208 67.1519 59.8299 66.3418 59.8299 65.3426V55.7075C59.8299 54.7082 59.0208 53.8982 58.0227 53.8982Z" fill="black"/>
<path opacity="0.1" d="M28.8977 69.9926H20.5972C19.5991 69.9926 18.79 70.8026 18.79 71.8019L18.79 81.4369C18.79 82.4361 19.5991 83.2462 20.5972 83.2462H28.8977C29.8958 83.2462 30.7049 82.4361 30.7049 81.4369L30.7049 71.8019C30.7049 70.8026 29.8958 69.9926 28.8977 69.9926Z" fill="black"/>
<path opacity="0.1" d="M43.4602 69.9926H35.1597C34.1616 69.9926 33.3525 70.8026 33.3525 71.8019V81.4369C33.3525 82.4361 34.1616 83.2462 35.1597 83.2462H43.4602C44.4583 83.2462 45.2674 82.4361 45.2674 81.4369V71.8019C45.2674 70.8026 44.4583 69.9926 43.4602 69.9926Z" fill="black"/>
<path opacity="0.1" d="M58.0227 69.9926H49.7222C48.7241 69.9926 47.915 70.8026 47.915 71.8019V81.4369C47.915 82.4361 48.7241 83.2462 49.7222 83.2462H58.0227C59.0208 83.2462 59.8299 82.4361 59.8299 81.4369V71.8019C59.8299 70.8026 59.0208 69.9926 58.0227 69.9926Z" fill="black"/>
<path opacity="0.1" d="M58.0227 86.0867H49.7222C48.7241 86.0867 47.915 86.8967 47.915 87.896V97.531C47.915 98.5303 48.7241 99.3403 49.7222 99.3403H58.0227C59.0208 99.3403 59.8299 98.5303 59.8299 97.531V87.896C59.8299 86.8967 59.0208 86.0867 58.0227 86.0867Z" fill="black"/>
<path opacity="0.1" d="M69.5641 54.1802H67.3097C64.6421 54.1802 62.4795 56.3453 62.4795 59.0162V62.5979C62.4795 65.2687 64.6421 67.4338 67.3097 67.4338H69.5641C72.2318 67.4338 74.3943 65.2687 74.3943 62.5979V59.0162C74.3943 56.3453 72.2318 54.1802 69.5641 54.1802Z" fill="black"/>
<path d="M72.5018 53.8982H64.3721C63.3268 53.8982 62.4795 54.7465 62.4795 55.793V65.257C62.4795 66.3035 63.3268 67.1519 64.3721 67.1519H72.5018C73.547 67.1519 74.3943 66.3035 74.3943 65.257V55.793C74.3943 54.7465 73.547 53.8982 72.5018 53.8982Z" fill="#0053CC"/>
<path d="M72.5018 53.8982H64.3721C63.3268 53.8982 62.4795 54.7465 62.4795 55.793V65.257C62.4795 66.3035 63.3268 67.1519 64.3721 67.1519H72.5018C73.547 67.1519 74.3943 66.3035 74.3943 65.257V55.793C74.3943 54.7465 73.547 53.8982 72.5018 53.8982Z" fill="#CB4B4B"/>
<path opacity="0.1" d="M43.5861 86.0867H20.4716C19.5429 86.0867 18.79 86.8404 18.79 87.7702L18.79 97.6568C18.79 98.5866 19.5429 99.3403 20.4716 99.3403H43.5861C44.5148 99.3403 45.2676 98.5866 45.2676 97.6568V87.7702C45.2676 86.8404 44.5148 86.0867 43.5861 86.0867Z" fill="black"/>
<path opacity="0.1" d="M72.4396 69.9926H63.2966C62.2181 69.9926 61.3438 70.8679 61.3438 71.9477L61.3437 97.387C61.3437 98.4668 62.2181 99.3421 63.2966 99.3421H72.4396C73.5181 99.3421 74.3924 98.4668 74.3924 97.387V71.9477C74.3924 70.8679 73.5181 69.9926 72.4396 69.9926Z" fill="black"/>
<path d="M73.4469 26.6582H68.2314V27.2233H73.4469V26.6582Z" fill="#0053CC"/>
<path d="M65.8102 26.6582H60.5947V27.2233H65.8102V26.6582Z" fill="#0053CC"/>
<path d="M58.1735 26.6582H52.958V27.2233H58.1735V26.6582Z" fill="#0053CC"/>
<path d="M50.5377 26.6582H45.3223V27.2233H50.5377V26.6582Z" fill="#0053CC"/>
<path d="M106.751 66.3251C107.289 64.5142 106.751 62.7032 106.751 62.7032V60.9945C106.751 60.9945 107.366 57.6543 104.623 55.5113L102.804 53.9049C102.804 53.9049 101.784 53.0279 101.487 52.9725C101.432 52.9606 101.376 52.9522 101.32 52.9474L101.266 52.9155C101.11 52.6479 100.977 52.3674 100.868 52.0771C100.985 52.0924 101.105 52.0803 101.217 52.042C101.33 52.0036 101.432 51.9399 101.516 51.8558C101.582 51.7801 101.633 51.6932 101.668 51.5992C101.774 51.3628 101.792 51.076 101.881 50.8245C101.959 50.6206 102.072 50.4321 102.216 50.2678C102.197 50.298 102.177 50.3265 102.161 50.3584C102.419 50.0364 102.755 49.7614 102.998 49.4227C103.046 49.3555 103.09 49.2855 103.13 49.2131C103.12 49.2282 103.107 49.2416 103.095 49.2567C103.43 48.7184 103.532 48.0661 103.629 47.4373C103.676 47.2233 103.68 47.0021 103.639 46.7867C103.592 46.6438 103.532 46.5057 103.459 46.3742C103.063 45.5576 103.07 44.5297 102.439 43.8774C101.963 43.3895 101.243 43.2402 100.564 43.1564C99.8862 43.0725 99.1727 43.0239 98.5898 42.6684C98.4271 42.5449 98.2471 42.4461 98.0556 42.375C97.9592 42.3413 97.8542 42.3423 97.7585 42.3778C97.6628 42.4133 97.5825 42.4811 97.5313 42.5695C97.5193 42.6218 97.4952 42.6706 97.461 42.712C97.4306 42.7293 97.3967 42.7393 97.3619 42.7413C97.327 42.7434 97.2922 42.7374 97.26 42.7238L96.3573 42.4823L96.3673 42.5276H96.3439L96.3774 42.6701C96.395 42.667 96.4132 42.6701 96.4288 42.679C96.4444 42.6879 96.4564 42.7019 96.4628 42.7187L96.3171 42.9434C96.0377 42.9383 95.7618 42.8815 95.5031 42.7757C95.5014 42.7902 95.5014 42.8049 95.5031 42.8193H95.4897C95.473 43.0742 95.7627 43.2402 95.8515 43.48C95.8871 43.5849 95.8871 43.6987 95.8515 43.8036C95.8152 43.901 95.758 43.9891 95.684 44.0619C95.3641 44.3788 94.9538 44.3167 94.5853 44.5163C94.5535 44.5299 94.525 44.5503 94.5018 44.5761C94.4787 44.6019 94.4614 44.6324 94.4513 44.6655C94.4367 44.6903 94.4325 44.7198 94.4396 44.7477C94.4541 44.7862 94.4805 44.8191 94.515 44.8416C94.6222 44.9284 94.7398 45.0016 94.865 45.0596C94.8281 45.0931 94.793 45.1267 94.7595 45.1619C94.2918 45.6377 93.9492 46.2221 93.7622 46.8628C93.5752 47.5036 93.5497 48.1807 93.6878 48.8338C93.826 49.4868 94.1237 50.0954 94.5541 50.6052C94.9846 51.115 95.5344 51.5101 96.1546 51.7552C96.168 51.8256 96.1781 51.8977 96.1881 51.9732C96.1881 51.9815 96.1881 51.9866 96.1881 51.995L96.1982 52.0922L94.9822 52.6103C94.7988 52.6089 94.6196 52.5554 94.4654 52.4559C94.3112 52.3565 94.1884 52.2152 94.1113 52.0486C93.8283 51.4634 92.8284 52.0486 92.8284 52.0486C92.8284 52.0486 89.7785 51.8206 88.6413 52.384C88.6413 52.384 86.8207 51.6193 86.5645 51.5674C86.3082 51.5154 85.9247 51.3125 85.7455 51.3645C85.5663 51.4164 85.3351 51.0291 85.2062 51.0576C85.0772 51.0861 85.027 50.8027 84.6167 50.7004C84.2063 50.5982 84.0522 50.7273 83.5916 50.2678C83.1311 49.8084 79.3861 47.9974 79.3861 47.9974L77.7046 46.6123L75.9108 45.1837L75.879 45.2424C75.8673 45.2004 75.8556 45.1568 75.8438 45.1099C75.6654 44.3982 75.4416 43.6986 75.1739 43.0155C75.0583 42.7388 75.0064 42.3901 74.8506 42.5745C74.7552 42.6852 74.5927 42.4421 74.3482 42.2777C74.2964 42.2419 74.2372 42.218 74.175 42.208C74.1128 42.1979 74.0491 42.2018 73.9886 42.2195C73.9282 42.2372 73.8724 42.2681 73.8253 42.3101C73.7783 42.3521 73.7412 42.404 73.7168 42.4622C72.32 44.6555 71.8192 44.8097 72.6281 45.6163C73.35 46.3323 73.829 46.9578 74.4169 47.1556L74.4872 47.1774C74.4746 47.1808 74.4613 47.1808 74.4487 47.1774L77.8587 51.2588C77.8587 51.2588 80.319 53.4018 82.0123 54.0893C83.7055 54.7768 83.5749 54.9831 83.5749 54.9831C83.5749 54.9831 88.7033 57.5838 89.4971 57.5335C90.291 57.4832 90.1386 62.8642 89.8053 63.7378C89.472 64.6114 88.9344 70.8794 88.9344 70.8794C88.9344 70.8794 88.4202 72.2058 88.9595 73.123C88.9595 73.123 89.0784 74.8803 88.9712 75.3029C88.504 76.0239 87.8374 77.248 87.7285 78.5073C87.7285 78.5744 87.7151 78.6364 87.7084 78.7018C87.6742 78.7415 87.6334 78.775 87.5878 78.8008L87.7017 78.7672C87.6532 79.2921 87.5407 79.8091 87.3667 80.3065C87.0956 81.0052 86.9521 81.747 86.943 82.4965V86.5477L86.608 89.063C86.608 89.063 86.1977 90.9662 86.608 91.4105C86.781 91.6321 86.8615 91.9122 86.8325 92.1919C86.8153 92.5167 86.9073 92.8378 87.0937 93.1041C87.165 93.182 87.2172 93.2754 87.2463 93.377C87.2753 93.4785 87.2804 93.5855 87.2612 93.6893C87.1256 94.1303 87.4622 98.8238 87.4622 98.8238C87.4622 98.8238 87.3634 100.117 87.2277 100.185C87.0921 100.254 87.4622 101.681 87.4622 101.681C87.4622 101.681 86.0771 102.838 86.4305 103.45L86.7839 103.993L86.6901 104.086L86.6332 104.144C86.5263 104.083 86.4017 104.059 86.2798 104.077C85.8445 104.523 85.3788 104.938 84.8863 105.32C84.2616 105.771 82.5616 106.425 82.5616 106.425L81.2217 106.534H81.1966C81.1966 106.534 80.5552 106.473 80.9152 107.468C81.2753 108.462 84.4944 108.157 84.4944 108.157L86.3736 107.86C86.3736 107.86 89.7232 107.877 90.6829 107.664C91.0832 107.575 91.1854 107.361 91.1519 107.144L91.1418 107.134C91.0957 106.928 91.0016 106.735 90.8671 106.572C90.8602 106.562 90.8524 106.552 90.8437 106.542L90.904 105.855C92.3259 105.035 90.502 103.422 90.502 103.422C90.502 103.422 91.1267 102.062 91.4466 101.621C91.7665 101.18 91.7665 94.682 91.7665 94.682C91.7665 94.682 91.934 92.3345 91.4935 91.7912C91.486 91.6142 91.5265 91.4386 91.6109 91.2829C91.6952 91.1273 91.8202 90.9975 91.9725 90.9075C92.2891 90.6912 93.2454 87.7114 93.9958 85.2381L94.4681 88.1524C94.4681 88.1524 94.3659 89.5476 94.6724 89.955C94.73 90.0318 94.771 90.1198 94.793 90.2133C94.8149 90.3068 94.8172 90.4039 94.7997 90.4983C94.727 90.8894 94.7506 91.2922 94.8683 91.6721C94.9044 91.8351 94.9919 91.9821 95.1179 92.0913C95.3909 92.2271 95.4076 92.7117 95.5098 92.814C95.612 92.9163 96.2451 92.6698 96.2786 93.0438C96.2977 93.3721 96.2977 93.7014 96.2786 94.0297L96.4846 100.083C96.4846 100.083 96.1496 100.586 96.0742 101.928C96.0458 102.499 95.9386 102.825 95.828 103.011C95.7667 103.111 95.7385 103.227 95.7476 103.344C95.7566 103.461 95.8023 103.572 95.8783 103.661L95.9369 103.73L95.684 103.925C95.5824 104.004 95.5112 104.116 95.4825 104.241C95.4538 104.367 95.4693 104.498 95.5266 104.614C95.445 104.685 95.3866 104.779 95.3588 104.883C95.331 104.988 95.3352 105.099 95.3708 105.201C95.3811 105.234 95.3958 105.266 95.4143 105.296C95.2222 105.326 95.0439 105.415 94.9035 105.55C94.6509 105.897 94.3464 106.204 94.0008 106.458C93.4991 106.843 93.0189 107.255 92.5621 107.693C92.3468 107.986 92.0579 108.217 91.7247 108.363C91.643 108.396 91.5583 108.422 91.4718 108.439C90.8018 108.576 91.0112 109.277 91.5572 109.393C92.1032 109.509 93.9154 110.064 95.3256 109.74C95.3256 109.74 95.7443 109.908 96.359 109.596C96.9736 109.284 98.3453 108.902 98.3453 108.902C98.3453 108.902 99.1141 108.902 99.2179 108.596C99.2449 108.499 99.2596 108.399 99.2614 108.298L99.2832 108.276L99.2631 108.258C99.265 108.029 99.2476 107.801 99.2112 107.575C99.1911 107.458 99.1693 107.354 99.1492 107.27C99.0839 107.015 98.9617 106.685 98.9097 106.546C98.9185 106.535 98.9263 106.523 98.9332 106.51C99.2263 106.007 98.7389 104.813 98.7389 104.813C98.8989 104.559 99.0934 104.328 99.3167 104.128C99.5897 103.923 100.308 98.6175 100.308 98.6175C100.308 98.6175 100.273 97.2576 100.643 96.6456C101.013 96.0335 100.131 92.3277 100.131 92.3277C100.131 92.3277 99.7538 91.4776 99.8912 91.1707C100.029 90.8639 99.7538 89.7421 99.7538 89.7421V88.4006C99.753 88.2409 99.7265 88.0823 99.6751 87.9311C99.5696 87.6159 99.4139 87.0105 99.583 86.5762C99.8225 85.9642 100.369 82.1896 100.369 82.1896C100.369 82.1896 99.9414 80.5245 100.568 79.1982C100.617 79.0922 100.673 78.9897 100.735 78.8913C101.199 78.1619 101.06 76.8657 100.831 75.821C100.797 75.6533 100.759 75.5024 100.72 75.3565C100.705 75.2928 100.688 75.2325 100.672 75.1721L100.745 75.1419C100.745 75.1419 100.745 75.043 100.769 74.8736C101.022 74.8234 101.262 74.7218 101.474 74.575C101.686 74.4282 101.865 74.2393 102.001 74.0201C102.001 74.0201 103.566 72.2594 104.949 71.52C106.333 70.7805 106.436 69.709 106.436 69.709C106.232 69.3518 106.803 67.898 106.803 67.898L106.751 66.3251ZM102.239 68.6727L100.759 70.3915V70.3814C100.374 69.8448 101.117 68.6459 101.117 68.6459L102.348 65.8959C102.338 66.248 102.295 66.5666 102.181 66.7058C101.846 67.1652 102.797 67.9315 102.797 67.9315C102.29 67.9332 102.239 68.6727 102.239 68.6727Z" fill="url(#paint0_linear)"/>
<path d="M76.1725 46.1379L75.3635 47.7091C75.1074 47.6871 74.8549 47.6342 74.6115 47.5514C74.2257 47.4361 73.8688 47.2402 73.5642 46.9765C73.2596 46.7129 73.0143 46.3877 72.8446 46.0222C72.1227 44.4258 73.3169 43.3946 73.8729 43.0894C74.429 42.7842 74.9465 42.4371 75.3635 43.4382C75.6253 44.1173 75.844 44.8124 76.0184 45.5191C76.1155 45.8863 76.1725 46.1379 76.1725 46.1379Z" fill="#CC818C"/>
<path d="M101.864 54.3108L100.573 56.2358C100.573 56.2358 94.4716 59.1502 95.6373 55.7328C96.1498 54.2236 96.2101 53.122 96.118 52.359C96.118 52.3506 96.118 52.3456 96.118 52.3372C95.9974 51.3831 95.639 50.9689 95.639 50.9689C95.639 50.9689 101.586 47.9205 100.7 50.0047C100.52 50.4379 100.448 50.9089 100.491 51.3764C100.564 52.0497 100.782 52.6991 101.131 53.2796C101.34 53.647 101.586 53.9925 101.864 54.3108Z" fill="#CC818C"/>
<path d="M100.006 92.4437C100.006 92.4437 100.884 96.1327 100.509 96.7347C100.134 97.3367 100.174 98.6949 100.174 98.6949C100.174 98.6949 99.4655 103.967 99.1958 104.168C98.9745 104.364 98.7812 104.59 98.6214 104.839C98.6214 104.839 99.1037 106.033 98.814 106.526C98.7693 106.601 98.7018 106.66 98.6214 106.693C98.1692 106.885 96.4977 106.036 95.5463 105.52C95.4697 105.478 95.4044 105.418 95.3558 105.345C95.3072 105.272 95.2769 105.189 95.2673 105.102C95.2578 105.015 95.2693 104.927 95.301 104.846C95.3327 104.764 95.3835 104.692 95.4492 104.634C95.392 104.52 95.3761 104.389 95.4042 104.265C95.4323 104.14 95.5026 104.029 95.6033 103.95L95.8545 103.756L95.7959 103.687C95.7207 103.598 95.6754 103.487 95.6664 103.371C95.6574 103.255 95.6851 103.139 95.7456 103.04C95.8545 102.857 95.96 102.537 95.9885 101.965C96.0572 100.647 96.3938 100.14 96.3938 100.14L96.1912 94.1239C96.2103 93.7977 96.2103 93.4708 96.1912 93.1446C96.1577 92.774 95.5329 93.0189 95.4324 92.9166C95.332 92.8143 95.3135 92.3347 95.0439 92.1989C94.9197 92.0896 94.8339 91.9432 94.7994 91.7813C94.6802 91.4017 94.6566 90.9985 94.7307 90.6076C94.748 90.5138 94.7458 90.4174 94.7242 90.3245C94.7026 90.2316 94.662 90.1441 94.6051 90.0676C94.3019 89.6618 94.4024 88.2785 94.4024 88.2785L93.9368 85.3809C93.1949 87.8391 92.2519 90.8004 91.9387 91.015C91.7885 91.1051 91.6653 91.2342 91.5821 91.3885C91.499 91.5429 91.459 91.7168 91.4664 91.892C91.9052 92.4336 91.7361 94.7661 91.7361 94.7661C91.7361 94.7661 91.7361 101.219 91.4195 101.66C91.103 102.101 90.49 103.457 90.49 103.457C90.49 103.457 92.2988 105.069 90.8752 105.882H90.8601C89.408 106.693 86.405 104.43 86.405 104.43L86.7182 104.116L86.8103 104.024L86.4553 103.494C86.1069 102.885 87.4736 101.737 87.4736 101.737C87.4736 101.737 87.1085 100.316 87.2425 100.249C87.3764 100.182 87.4736 98.8978 87.4736 98.8978C87.4736 98.8978 87.1386 94.2345 87.276 93.7952C87.2943 93.6919 87.2887 93.5857 87.2596 93.4848C87.2306 93.384 87.1789 93.2911 87.1085 93.2134C86.9241 92.9488 86.8333 92.6301 86.8505 92.3079C86.8798 92.0299 86.7999 91.7515 86.6278 91.5315C86.2225 91.0922 86.6278 89.2007 86.6278 89.2007L86.9628 86.6989V82.7265C86.9673 81.9596 87.1109 81.2 87.3865 80.4846C87.5911 79.9046 87.7151 79.2991 87.755 78.6853C87.8655 77.4042 88.5539 76.16 89.0161 75.4507C89.2606 75.0751 89.4432 74.8504 89.4432 74.8504L100.243 74.4279C100.243 74.4279 100.41 74.9091 100.591 75.5782C100.628 75.724 100.665 75.8783 100.7 76.0393C100.926 77.0789 101.062 78.3667 100.604 79.0911C100.542 79.1893 100.486 79.2912 100.437 79.3963C99.8189 80.7143 100.241 82.3693 100.241 82.3693C100.241 82.3693 99.7016 86.1187 99.4655 86.7291C99.298 87.16 99.4521 87.762 99.5576 88.0705C99.6069 88.2216 99.6323 88.3794 99.633 88.5384V89.8748C99.633 89.8748 99.9043 90.9899 99.7686 91.2951C99.633 91.6002 100.006 92.4437 100.006 92.4437Z" fill="#444053"/>
<path opacity="0.1" d="M100.504 79.1984C100.441 79.2957 100.385 79.3971 100.336 79.5019L99.7281 79.4684C99.7867 79.1548 99.373 76.2154 99.373 76.2154L100.597 76.1466C100.823 77.1846 100.961 78.4724 100.504 79.1984Z" fill="black"/>
<path d="M100.603 79.0961C100.541 79.1943 100.485 79.2962 100.436 79.4013L99.8277 79.3661C99.8863 79.0542 99.4727 76.1129 99.4727 76.1129L100.697 76.0442C100.925 77.0838 101.06 78.3717 100.603 79.0961Z" fill="#444053"/>
<path opacity="0.05" d="M100.603 79.0961C100.541 79.1943 100.485 79.2962 100.436 79.4013L99.8277 79.3661C99.8863 79.0542 99.4727 76.1129 99.4727 76.1129L100.697 76.0442C100.925 77.0838 101.06 78.3717 100.603 79.0961Z" fill="black"/>
<path opacity="0.1" d="M98.8125 106.532C98.7679 106.607 98.7004 106.666 98.6199 106.7C98.1677 106.891 96.4962 106.042 95.5449 105.526C95.4261 105.46 95.336 105.353 95.292 105.224C95.8346 105.125 96.1897 105.727 96.1897 105.727C96.2802 105.67 96.3811 105.632 96.4865 105.615C96.5919 105.598 96.6996 105.602 96.8034 105.627C96.9072 105.652 97.0049 105.698 97.0908 105.762C97.1767 105.825 97.249 105.905 97.3035 105.997C97.7674 106.681 98.7623 106.393 98.7623 106.393L98.8125 106.532Z" fill="black"/>
<path d="M99.0937 108.603C98.9932 108.908 98.2329 108.908 98.2329 108.908C98.2329 108.908 96.8746 109.297 96.2666 109.601C95.6586 109.904 95.2466 109.745 95.2466 109.745C93.8548 110.065 92.0644 109.509 91.5251 109.398C90.9858 109.287 90.7748 108.588 91.4414 108.452C91.5269 108.435 91.6104 108.409 91.6909 108.375C92.0249 108.23 92.3141 107.999 92.5284 107.704C92.9796 107.27 93.4543 106.861 93.9503 106.479C94.2917 106.225 94.5922 105.92 94.8413 105.575C95.6352 104.874 96.1996 105.836 96.1996 105.836C96.2902 105.78 96.3912 105.742 96.4966 105.725C96.6021 105.708 96.7099 105.712 96.8137 105.737C96.9175 105.762 97.0152 105.808 97.101 105.872C97.1868 105.936 97.259 106.016 97.3134 106.108C97.7773 106.792 98.7722 106.502 98.7722 106.502C98.7722 106.502 98.9514 106.96 99.0351 107.288C99.0552 107.372 99.077 107.476 99.0971 107.594C99.1423 107.934 99.1708 108.375 99.0937 108.603Z" fill="#FF748F"/>
<path d="M96.7738 106.467C96.8246 106.467 96.8659 106.426 96.8659 106.375C96.8659 106.324 96.8246 106.282 96.7738 106.282C96.7229 106.282 96.6816 106.324 96.6816 106.375C96.6816 106.426 96.7229 106.467 96.7738 106.467Z" fill="#F1F1F1"/>
<path d="M95.9808 107.21C96.0317 107.21 96.0729 107.169 96.0729 107.118C96.0729 107.067 96.0317 107.026 95.9808 107.026C95.9299 107.026 95.8887 107.067 95.8887 107.118C95.8887 107.169 95.9299 107.21 95.9808 107.21Z" fill="#F1F1F1"/>
<path d="M95.1771 107.877C95.228 107.877 95.2692 107.836 95.2692 107.785C95.2692 107.734 95.228 107.693 95.1771 107.693C95.1262 107.693 95.085 107.734 95.085 107.785C95.085 107.836 95.1262 107.877 95.1771 107.877Z" fill="#F1F1F1"/>
<path d="M95.5931 107.579C95.644 107.579 95.6852 107.537 95.6852 107.487C95.6852 107.436 95.644 107.394 95.5931 107.394C95.5422 107.394 95.501 107.436 95.501 107.487C95.501 107.537 95.5422 107.579 95.5931 107.579Z" fill="#F1F1F1"/>
<path d="M96.3929 106.816C96.4438 106.816 96.485 106.774 96.485 106.723C96.485 106.672 96.4438 106.631 96.3929 106.631C96.342 106.631 96.3008 106.672 96.3008 106.723C96.3008 106.774 96.342 106.816 96.3929 106.816Z" fill="#F1F1F1"/>
<path d="M99.0938 108.603C98.9933 108.908 98.2329 108.908 98.2329 108.908C98.2329 108.908 96.8746 109.297 96.2666 109.601C95.6587 109.904 95.2466 109.745 95.2466 109.745C93.8548 110.065 92.0644 109.509 91.5251 109.398C90.9858 109.287 90.7748 108.588 91.4414 108.452C91.5269 108.435 91.6104 108.409 91.6909 108.375C92.2796 108.578 92.8945 108.695 93.5165 108.722C94.8916 108.781 95.9802 108.722 95.9802 108.722L97.372 108.275C97.6355 108.115 97.9281 108.009 98.2329 107.963C98.541 107.9 98.8326 107.773 99.0887 107.59C99.1423 107.934 99.1708 108.375 99.0938 108.603Z" fill="#DCE6F2"/>
<path opacity="0.5" d="M95.6305 109.477C95.553 109.477 95.4755 109.47 95.3994 109.455L95.4195 109.356C95.7041 109.4 95.9952 109.359 96.2569 109.239C96.3809 109.19 96.5048 109.131 96.6254 109.071C96.746 109.011 96.9151 108.935 97.0659 108.88L97.2032 108.833C97.2786 108.806 97.3556 108.781 97.4293 108.749C97.4712 108.732 97.5131 108.712 97.5533 108.692C97.6521 108.64 97.7566 108.6 97.8648 108.573C97.9202 108.563 97.9761 108.555 98.0323 108.551C98.0839 108.548 98.1353 108.542 98.1864 108.533C98.2877 108.507 98.386 108.471 98.4794 108.424C98.5794 108.372 98.6851 108.333 98.7943 108.306L98.868 108.295C98.9475 108.293 99.024 108.264 99.0857 108.214L99.1611 108.283C99.0843 108.35 98.9869 108.39 98.8848 108.395L98.8144 108.407C98.7128 108.432 98.6145 108.468 98.5213 108.516C98.4209 108.566 98.3153 108.605 98.2064 108.632C98.1512 108.643 98.0952 108.649 98.039 108.652C97.9862 108.656 97.9336 108.662 97.8815 108.672C97.7809 108.698 97.6837 108.736 97.5918 108.784L97.4645 108.843C97.3875 108.875 97.3071 108.902 97.23 108.928L97.096 108.975C96.9486 109.029 96.8046 109.098 96.6639 109.163C96.5232 109.229 96.416 109.281 96.2888 109.331C96.0803 109.42 95.8571 109.469 95.6305 109.477Z" fill="#F1F1F1"/>
<path opacity="0.1" d="M95.9551 92.6881C95.9551 92.6881 96.6552 91.682 97.8543 91.682C99.0535 91.682 99.566 91.5461 99.566 91.5461C99.566 91.5461 98.7989 92.0022 98.268 92.0609C97.7371 92.1196 95.9551 92.6881 95.9551 92.6881Z" fill="black"/>
<path opacity="0.1" d="M96.3604 92.9249C96.3604 92.9249 96.9934 92.4855 97.3552 92.4688C97.717 92.452 98.0251 92.4185 98.0251 92.4185C97.8554 92.5377 97.6677 92.6288 97.4691 92.6884C97.1726 92.7723 96.3604 92.9249 96.3604 92.9249Z" fill="black"/>
<path opacity="0.1" d="M96.5039 93.2283C96.5039 93.2283 97.4569 93.3037 97.4653 93.5636L96.5039 93.2283Z" fill="black"/>
<path opacity="0.1" d="M87.6162 78.9755C87.6665 78.9839 88.5189 78.0884 88.5776 77.7346C88.6241 77.5107 88.7571 77.3142 88.9477 77.188C88.9477 77.188 89.497 77.4076 89.008 78.0817C88.5189 78.7558 87.6162 78.9755 87.6162 78.9755Z" fill="black"/>
<path opacity="0.1" d="M100.691 50.0013C100.496 50.4608 100.326 50.5044 100.356 50.942C100.13 51.1818 99.8695 51.3869 99.5837 51.5507C98.9807 51.9096 98.3242 52.6122 97.5738 52.6122C97.0711 52.6125 96.5728 52.5181 96.105 52.3338C95.9844 51.3797 95.626 50.9655 95.626 50.9655C95.626 50.9655 101.575 47.917 100.691 50.0013Z" fill="black"/>
<path d="M101.603 48.3797C101.603 49.1757 101.367 49.9538 100.925 50.6156C100.484 51.2774 99.8559 51.7932 99.1214 52.0978C98.3869 52.4024 97.5787 52.4821 96.7989 52.3268C96.0192 52.1715 95.303 51.7882 94.7408 51.2254C94.1786 50.6626 93.7958 49.9455 93.6407 49.1649C93.4856 48.3842 93.5652 47.575 93.8695 46.8397C94.1737 46.1043 94.6889 45.4758 95.3499 45.0336C96.011 44.5914 96.7881 44.3553 97.5831 44.3553C98.6492 44.3553 99.6716 44.7793 100.425 45.5341C101.179 46.2888 101.603 47.3124 101.603 48.3797Z" fill="#CC818C"/>
<path opacity="0.1" d="M101.864 54.3107L100.573 56.2357C100.573 56.2357 94.4716 59.15 95.6373 55.7327C96.1498 54.2235 96.2101 53.1218 96.118 52.3589H96.128C96.2002 52.6117 96.2412 52.8725 96.2503 53.1353C96.2687 53.6618 96.2821 54.3275 97.5902 54.5471C99.7675 54.9127 100.93 53.5511 101.134 53.2845C101.343 53.6501 101.587 53.9938 101.864 54.3107Z" fill="black"/>
<path opacity="0.1" d="M76.1713 46.1379L75.3624 47.709C75.1063 47.6871 74.8538 47.6342 74.6104 47.5514L74.54 47.4676C74.875 47.595 75.9821 45.4906 75.9821 45.4906L76.0172 45.5191C76.1144 45.8863 76.1713 46.1379 76.1713 46.1379Z" fill="black"/>
<path opacity="0.1" d="M100.592 75.5829C97.9857 76.7164 88.9717 75.7506 88.9717 75.7506C88.9986 75.6544 89.0138 75.5553 89.0169 75.4555C89.2614 75.0799 89.444 74.8552 89.444 74.8552L100.243 74.4326C100.243 74.4326 100.419 74.9139 100.592 75.5829Z" fill="black"/>
<path d="M96.1201 52.4528L94.9175 52.9676C94.7361 52.966 94.5588 52.9127 94.4066 52.8138C94.2544 52.7149 94.1336 52.5745 94.0583 52.4092C93.7786 51.8273 92.7922 52.4092 92.7922 52.4092C92.7922 52.4092 89.7774 52.1811 88.6653 52.7445C88.6653 52.7445 86.8682 51.9833 86.6153 51.933C86.3624 51.8827 85.9822 51.6798 85.8047 51.7301C85.6272 51.7804 85.4011 51.3947 85.2738 51.4266C85.1465 51.4584 85.0962 51.1734 84.6909 51.0711C84.2856 50.9688 84.1349 51.0962 83.686 50.6401C83.2372 50.184 79.5341 48.3848 79.5341 48.3848L77.8593 47.0165L76.0873 45.5979C76.0873 45.5979 74.9735 47.7006 74.6436 47.5732L78.01 51.6295C78.01 51.6295 80.4402 53.7574 82.1117 54.4415C83.7832 55.1256 83.6559 55.3285 83.6559 55.3285C83.6559 55.3285 88.7189 57.9142 89.5028 57.8639C90.2866 57.8136 90.1392 63.1543 89.8042 64.0162C89.4693 64.8781 88.945 71.1125 88.945 71.1125C88.945 71.1125 88.4426 72.4305 88.9702 73.3427C88.9702 73.3427 89.0958 75.2191 88.9702 75.5478C88.9702 75.5478 98.0394 76.5186 100.614 75.37C100.614 75.37 100.994 71.1628 100.614 70.6313C100.233 70.0997 100.969 68.9142 100.969 68.9142L102.588 65.2906L106.538 61.3115C106.538 61.3115 107.144 57.9914 104.436 55.8635L102.639 54.2654C102.639 54.2654 101.634 53.3952 101.339 53.3398C101.044 53.2845 101.153 53.3398 101.153 53.3398C101.153 53.3398 99.9806 55.0519 97.5755 54.6461C96.2725 54.4264 96.2591 53.7607 96.2356 53.2359C96.2288 52.9711 96.19 52.7082 96.1201 52.4528Z" fill="#67647E"/>
<path opacity="0.1" d="M101.07 66.0956C101.07 66.0956 95.4998 66.3236 94.3877 68.0759C94.3877 68.0759 95.8314 67.3901 97.121 67.593C98.4107 67.7959 101.07 66.0956 101.07 66.0956Z" fill="black"/>
<path opacity="0.1" d="M94.917 72.2028C94.917 72.2028 97.5499 72.3806 98.1076 71.8222C98.6653 71.2638 98.667 70.9352 98.667 70.9352L94.917 72.2028Z" fill="black"/>
<path opacity="0.1" d="M101.603 60.7214C101.603 60.7214 99.3734 63.3574 102.083 64.4976L101.603 60.7214Z" fill="black"/>
<path opacity="0.1" d="M88.4131 55.6289C88.4131 55.6289 89.2237 57.2839 89.629 57.3929L88.4131 55.6289Z" fill="black"/>
<path opacity="0.1" d="M85.6777 54.9181C85.6777 54.9181 87.7026 56.7442 88.0828 56.9202C88.0828 56.9202 85.9809 54.9181 85.6777 54.9181Z" fill="black"/>
<path opacity="0.1" d="M93.7535 53.1707C93.7535 53.1707 91.8039 56.085 93.0701 57.8658C93.0701 57.8591 92.3617 55.7547 93.7535 53.1707Z" fill="black"/>
<path d="M98.6677 75.2443L98.0715 75.806L97.9877 75.8832L97.2977 76.5371C97.2491 76.574 97.2005 76.6109 97.1503 76.6445C94.3416 78.6567 93.7788 75.5981 93.7788 75.5981C93.7788 75.5981 92.5394 76.4097 92.3619 75.7507C92.1844 75.0917 95.2477 74.1544 95.7116 74.2047C95.7523 74.2088 95.7932 74.2088 95.8339 74.2047C96.0552 74.1678 96.2684 74.0923 96.4636 73.9816L96.5993 73.9095C96.7553 73.8216 96.9068 73.7259 97.0532 73.6228L98.6677 75.2443Z" fill="#CC818C"/>
<path opacity="0.1" d="M101.695 48.3798C101.696 49.0778 101.516 49.7641 101.173 50.3715C100.829 50.9789 100.334 51.4864 99.735 51.8441C99.6789 51.7499 99.6297 51.6519 99.5876 51.5506C99.4436 51.2153 99.3548 50.8531 99.2091 50.516C99.0498 50.1481 98.8225 49.8136 98.5392 49.5301C98.4911 49.4739 98.4294 49.4311 98.36 49.406C98.2948 49.397 98.2285 49.4014 98.1652 49.419C98.1018 49.4366 98.0427 49.467 97.9915 49.5083C97.821 49.6239 97.6309 49.7074 97.4304 49.7548C97.3301 49.7778 97.2256 49.7745 97.127 49.7451C97.0284 49.7157 96.9391 49.6613 96.8677 49.5871C96.7102 49.3993 96.732 49.1243 96.7772 48.8845C96.8761 48.3596 97.0402 47.8432 97.0419 47.3099C97.0435 46.7767 96.8392 46.2032 96.3719 45.9383C95.9633 45.7052 95.4558 45.7706 95.0019 45.6398C94.9316 45.6214 94.8628 45.5979 94.7959 45.5694C95.3539 44.996 96.0701 44.6022 96.8528 44.4385C97.6355 44.2747 98.4492 44.3484 99.1899 44.6502C99.9306 44.9519 100.565 45.4679 101.011 46.1323C101.457 46.7967 101.695 47.5792 101.695 48.3798Z" fill="black"/>
<path d="M94.522 44.9255C94.4499 44.9641 94.3695 45.0345 94.3913 45.115C94.4052 45.1534 94.4311 45.1863 94.465 45.2089C94.6525 45.3604 94.8692 45.4717 95.1015 45.5359C95.5553 45.66 96.0645 45.6013 96.4732 45.8344C96.9354 46.0976 97.1431 46.6728 97.1431 47.206C97.1431 47.7392 96.9756 48.2557 96.8801 48.7789C96.8349 49.0203 96.8115 49.2953 96.9689 49.4831C97.0406 49.5569 97.1299 49.6111 97.2284 49.6404C97.327 49.6698 97.4314 49.6734 97.5317 49.6508C97.7321 49.6044 97.9223 49.5214 98.0927 49.406C98.1442 49.3645 98.2035 49.3338 98.2671 49.3159C98.3308 49.2981 98.3974 49.2933 98.4629 49.302C98.5318 49.3283 98.5932 49.3709 98.6421 49.4261C98.9256 49.7101 99.1529 50.0452 99.312 50.4138C99.4594 50.7491 99.5465 51.1097 99.6905 51.4484C99.816 51.7938 100.051 52.0884 100.36 52.2868C100.682 52.4645 101.128 52.4545 101.375 52.1795C101.623 51.9045 101.603 51.5272 101.72 51.1968C101.921 50.6217 102.482 50.2612 102.834 49.7648C103.228 49.2065 103.337 48.5055 103.444 47.8298C103.492 47.617 103.495 47.3967 103.454 47.1825C103.408 47.0408 103.349 46.9037 103.276 46.7734C102.884 45.9618 102.893 44.9406 102.271 44.2934C101.803 43.8071 101.091 43.6595 100.421 43.5757C99.7508 43.4918 99.0474 43.4449 98.4729 43.0911C98.3118 42.9691 98.1342 42.8709 97.9453 42.7993C97.8498 42.7656 97.7454 42.7667 97.6505 42.8022C97.5556 42.8378 97.4762 42.9056 97.4261 42.9938C97.4143 43.0454 97.3908 43.0936 97.3575 43.1347C97.3274 43.152 97.2938 43.1621 97.2592 43.1641C97.2246 43.1662 97.19 43.1601 97.1582 43.1464L96.2672 42.9066L96.3693 43.356C96.0455 43.3696 95.7225 43.3124 95.423 43.1883C95.4063 43.4432 95.6927 43.6075 95.7814 43.8456C95.8134 43.9539 95.8147 44.069 95.7852 44.178C95.7556 44.287 95.6963 44.3855 95.614 44.4627C95.2907 44.788 94.8871 44.726 94.522 44.9255Z" fill="#585268"/>
<path opacity="0.1" d="M90.9103 105.479L90.8735 105.884H90.8584C89.4063 106.695 86.4033 104.431 86.4033 104.431L86.7165 104.118C86.7679 104.175 86.8067 104.242 86.8304 104.315C86.854 104.388 86.862 104.466 86.8539 104.542L87.4668 104.576L88.2004 105.369C88.2004 105.369 90.1851 105.598 90.7227 105.471L90.9103 105.479Z" fill="black"/>
<path d="M90.6565 107.683C89.7119 107.894 86.404 107.879 86.404 107.879L84.5483 108.172C84.5483 108.172 81.3661 108.478 81.0127 107.488C80.6593 106.499 81.2908 106.561 81.2908 106.561H81.3159L82.6407 106.454C82.6407 106.454 84.3155 105.803 84.9369 105.355C85.4232 104.976 85.8826 104.564 86.3119 104.121C86.3119 104.121 86.8646 104.014 86.8546 104.654L87.4676 104.688L88.2011 105.483C88.2011 105.483 90.1858 105.713 90.7235 105.583H90.911L90.8256 106.564L90.8491 106.593C90.9764 106.747 91.5006 107.495 90.6565 107.683Z" fill="#FF748F"/>
<path d="M87.2318 105.317C87.2827 105.317 87.3239 105.276 87.3239 105.225C87.3239 105.174 87.2827 105.132 87.2318 105.132C87.1809 105.132 87.1396 105.174 87.1396 105.225C87.1396 105.276 87.1809 105.317 87.2318 105.317Z" fill="#F1F1F1"/>
<path d="M84.8509 106.35C84.9018 106.35 84.943 106.308 84.943 106.257C84.943 106.206 84.9018 106.165 84.8509 106.165C84.8 106.165 84.7588 106.206 84.7588 106.257C84.7588 106.308 84.8 106.35 84.8509 106.35Z" fill="#F1F1F1"/>
<path d="M83.6253 106.722C83.6762 106.722 83.7175 106.68 83.7175 106.629C83.7175 106.579 83.6762 106.537 83.6253 106.537C83.5744 106.537 83.5332 106.579 83.5332 106.629C83.5332 106.68 83.5744 106.722 83.6253 106.722Z" fill="#F1F1F1"/>
<path d="M85.4769 106.151C85.5278 106.151 85.569 106.11 85.569 106.059C85.569 106.008 85.5278 105.967 85.4769 105.967C85.426 105.967 85.3848 106.008 85.3848 106.059C85.3848 106.11 85.426 106.151 85.4769 106.151Z" fill="#F1F1F1"/>
<path d="M84.2366 106.535C84.2875 106.535 84.3288 106.494 84.3288 106.443C84.3288 106.392 84.2875 106.351 84.2366 106.351C84.1858 106.351 84.1445 106.392 84.1445 106.443C84.1445 106.494 84.1858 106.535 84.2366 106.535Z" fill="#F1F1F1"/>
<path d="M86.1077 105.858C86.1586 105.858 86.1999 105.817 86.1999 105.766C86.1999 105.715 86.1586 105.674 86.1077 105.674C86.0569 105.674 86.0156 105.715 86.0156 105.766C86.0156 105.817 86.0569 105.858 86.1077 105.858Z" fill="#F1F1F1"/>
<path d="M86.7337 105.587C86.7846 105.587 86.8258 105.545 86.8258 105.494C86.8258 105.443 86.7846 105.402 86.7337 105.402C86.6829 105.402 86.6416 105.443 86.6416 105.494C86.6416 105.545 86.6829 105.587 86.7337 105.587Z" fill="#F1F1F1"/>
<path d="M90.6565 107.683C89.7119 107.894 86.404 107.879 86.404 107.879L84.5483 108.172C84.5483 108.172 81.3661 108.477 81.0127 107.488C80.6593 106.499 81.2908 106.561 81.2908 106.561H81.3159C81.5185 106.824 81.9255 107.123 82.7244 107.138L85.0123 107.23L87.3821 107.062C87.3821 107.062 89.603 106.997 89.9648 106.92C90.2686 106.838 90.5645 106.729 90.8491 106.594C90.9764 106.747 91.5006 107.495 90.6565 107.683Z" fill="#DCE6F2"/>
<path opacity="0.5" d="M84.7277 107.949C84.6011 107.951 84.4748 107.935 84.3525 107.902L84.3793 107.805C84.6915 107.872 85.0156 107.858 85.3206 107.763C85.4328 107.733 85.5433 107.701 85.6556 107.668C85.8583 107.603 86.0646 107.551 86.2736 107.512C86.6112 107.468 86.9523 107.458 87.2919 107.482H87.3639C88.3786 107.535 89.3961 107.489 90.4021 107.346C90.6408 107.329 90.8682 107.238 91.0519 107.084L91.1239 107.156C90.9254 107.325 90.6786 107.427 90.4188 107.446C89.4062 107.591 88.382 107.636 87.3606 107.582H87.2869C86.9517 107.559 86.6151 107.569 86.282 107.612C86.0774 107.651 85.8755 107.701 85.6773 107.765C85.5651 107.798 85.4529 107.832 85.3424 107.86C85.1419 107.915 84.9354 107.945 84.7277 107.949Z" fill="#F1F1F1"/>
<path opacity="0.1" d="M98.6686 75.2446L98.0723 75.8063L96.5918 73.9082C96.7478 73.8203 96.8993 73.7246 97.0457 73.6215L98.6686 75.2446Z" fill="black"/>
<path d="M105.378 59.6918L106.551 61.3133V63.0119C106.551 63.0119 107.082 64.8111 106.551 66.6104L106.608 68.1816C106.608 68.1816 106.043 69.6253 106.246 69.9808C106.246 69.9808 106.146 71.0456 104.779 71.78C103.412 72.5145 101.861 74.255 101.861 74.255C101.861 74.255 101.278 75.3701 99.7091 75.1169L98.2152 75.7508L96.4951 73.5457L98.8231 72.278C98.8231 72.278 99.6338 71.1898 100.114 71.2401L102.089 68.9328C102.089 68.9328 102.139 68.1983 102.645 68.1983C102.645 68.1983 101.709 67.4387 102.037 66.9826C102.365 66.5265 102.089 64.4976 102.089 64.4976L105.378 59.6918Z" fill="#67647E"/>
<path opacity="0.1" d="M103.202 67.0833C103.202 67.0833 105.86 67.033 106.188 67.7171C106.517 68.4012 104.004 66.7027 103.202 67.0833Z" fill="black"/>
<path opacity="0.1" d="M97.9993 75.7506C97.9996 75.795 97.9957 75.8393 97.9876 75.883C97.957 76.0871 97.8569 76.2743 97.7043 76.413C97.5518 76.5518 97.356 76.6334 97.1502 76.6443H97.1033C96.8661 76.6443 96.6386 76.55 96.4709 76.382C96.3031 76.2141 96.2089 75.9864 96.2089 75.7489C96.2091 75.65 96.2261 75.5519 96.2591 75.4588C95.8371 75.1234 95.8136 74.5064 95.8254 74.2012C96.0467 74.1643 96.2598 74.0888 96.4551 73.9781C96.5652 74.2949 96.7131 74.5973 96.8956 74.8786C96.9637 74.8625 97.0333 74.8541 97.1033 74.8534C97.2209 74.8534 97.3375 74.8767 97.4462 74.9217C97.5549 74.9668 97.6537 75.0329 97.7369 75.1162C97.8201 75.1995 97.8861 75.2984 97.9311 75.4073C97.9761 75.5161 97.9993 75.6328 97.9993 75.7506Z" fill="black"/>
<path d="M96.535 73.7772C96.535 73.7772 95.9354 73.913 95.9354 74.022C95.9354 74.131 95.7997 75.1204 96.4579 75.5312C97.1161 75.942 97.0492 74.9644 97.0492 74.9644C97.0492 74.9644 96.4831 74.0958 96.535 73.7772Z" fill="#F1F1F1"/>
<path d="M97.2049 76.646C97.6988 76.646 98.0993 76.2451 98.0993 75.7505C98.0993 75.256 97.6988 74.8551 97.2049 74.8551C96.711 74.8551 96.3105 75.256 96.3105 75.7505C96.3105 76.2451 96.711 76.646 97.2049 76.646Z" fill="#E4AAB4"/>
<path d="M97.2056 76.5186C97.6292 76.5186 97.9726 76.1748 97.9726 75.7507C97.9726 75.3265 97.6292 74.9827 97.2056 74.9827C96.7819 74.9827 96.4385 75.3265 96.4385 75.7507C96.4385 76.1748 96.7819 76.5186 97.2056 76.5186Z" fill="#DCE6F2"/>
<path opacity="0.1" d="M93.7188 76.0981C93.7188 76.0981 95.6097 77.6677 98.0382 76.6716V77.4329C98.0382 77.4329 96.4187 78.548 94.9515 77.8722C93.4844 77.1965 93.7188 76.0981 93.7188 76.0981Z" fill="black"/>
<path opacity="0.1" d="M93.7188 75.895C93.7188 75.895 95.6097 77.4662 98.0382 76.4685V77.2298C98.0382 77.2298 96.4187 78.3449 94.9515 77.6691C93.4844 76.9934 93.7188 75.895 93.7188 75.895Z" fill="black"/>
<path d="M93.7188 75.895C93.7188 75.895 95.6097 77.4662 98.0382 76.4685V77.2298C98.0382 77.2298 96.4187 78.3449 94.9515 77.6691C93.4844 76.9934 93.7188 75.895 93.7188 75.895Z" fill="#444053"/>
<path opacity="0.05" d="M93.7679 75.895C93.7679 75.895 95.6588 77.4662 98.089 76.4685V77.2298C98.089 77.2298 96.4694 78.3449 95.0006 77.6691C93.5317 76.9934 93.7679 75.895 93.7679 75.895Z" fill="black"/>
<path opacity="0.1" d="M87.7793 104.118C87.7793 104.118 90.3116 104.584 90.6818 104.685C91.0519 104.785 90.5813 104.963 90.5813 104.963C90.5813 104.963 88.27 104.549 87.7793 104.118Z" fill="black"/>
<path opacity="0.1" d="M87.7207 102.775C87.7626 102.775 89.4425 102.302 89.8042 101.492L87.7207 102.775Z" fill="black"/>
<path opacity="0.1" d="M90.1719 93.0775C90.1719 93.0775 90.8519 93.9729 91.2907 93.9478C91.7295 93.9226 90.5705 93.0439 90.1719 93.0775Z" fill="black"/>
<path opacity="0.1" d="M90.5479 94.5697C90.5479 94.5697 90.8343 95.2018 91.2563 94.999L90.5479 94.5697Z" fill="black"/>
<path opacity="0.05" d="M92.1494 80.6522L93.9448 85.3926C93.9448 85.3926 94.1977 82.3425 93.6635 81.4303C93.5116 81.1694 93.2884 80.9575 93.0201 80.8196C92.7518 80.6817 92.4496 80.6237 92.1494 80.6522Z" fill="black"/>
<g opacity="0.1">
<path opacity="0.1" d="M96.5629 43.0913L96.5478 43.0226L96.2598 42.9454L96.2916 43.0863C96.3819 43.093 96.4724 43.0947 96.5629 43.0913Z" fill="black"/>
<path opacity="0.1" d="M95.7707 44.2349L95.8008 44.2081C95.8833 44.131 95.9427 44.0324 95.9723 43.9234C96.0019 43.8144 96.0005 43.6993 95.9683 43.591C95.9335 43.5069 95.8848 43.4293 95.8243 43.3613C95.6824 43.3333 95.5433 43.2923 95.4089 43.2389C95.3922 43.4921 95.6769 43.6564 95.7657 43.8945C95.8068 44.004 95.8086 44.1243 95.7707 44.2349Z" fill="black"/>
<path opacity="0.1" d="M100.558 52.0269C100.246 51.8299 100.007 51.5351 99.8796 51.1885C99.7373 50.8531 99.6485 50.4909 99.5028 50.1556C99.3436 49.787 99.1163 49.4519 98.8329 49.1679C98.7845 49.1121 98.7229 49.0694 98.6537 49.0438C98.5885 49.0352 98.5223 49.0398 98.459 49.0574C98.3957 49.075 98.3366 49.1052 98.2852 49.1461C98.1147 49.2617 97.9246 49.3453 97.7241 49.3926C97.6238 49.4153 97.5194 49.4118 97.4208 49.3824C97.3223 49.3531 97.2329 49.2988 97.1614 49.2249C97.0039 49.0371 97.0257 48.7604 97.0709 48.5207C97.1697 47.9975 97.3339 47.4793 97.3356 46.9478C97.3372 46.4162 97.1329 45.8394 96.6656 45.5761C96.2569 45.3431 95.7495 45.4085 95.2956 45.2777C95.0628 45.2136 94.8456 45.1023 94.6575 44.9507C94.6455 44.9409 94.6343 44.9303 94.624 44.9188C94.5859 44.9334 94.549 44.9508 94.5134 44.9708C94.4397 45.0094 94.361 45.0798 94.3811 45.1603C94.3963 45.1985 94.4225 45.2312 94.4565 45.2542C94.6438 45.4061 94.8605 45.5174 95.0929 45.5812C95.5468 45.7053 96.0543 45.6466 96.463 45.8796C96.9252 46.1429 97.1329 46.7181 97.1329 47.2513C97.1329 47.7845 96.9654 48.301 96.8683 48.8242C96.823 49.0656 96.8013 49.3406 96.9587 49.5284C97.0303 49.6023 97.1196 49.6566 97.2182 49.686C97.3167 49.7153 97.4212 49.7188 97.5215 49.6961C97.7219 49.6497 97.9121 49.5667 98.0825 49.4513C98.1337 49.4098 98.1927 49.3792 98.2561 49.3613C98.3194 49.3434 98.3857 49.3387 98.451 49.3473C98.5201 49.3731 98.5817 49.4158 98.6302 49.4714C98.913 49.756 99.1403 50.0909 99.3001 50.4591C99.4475 50.7944 99.5346 51.155 99.6787 51.4937C99.8042 51.8391 100.04 52.1337 100.349 52.3321C100.668 52.5098 101.116 52.4998 101.354 52.2248C101.419 52.1501 101.471 52.0636 101.504 51.9699C101.369 52.0707 101.208 52.1298 101.04 52.1399C100.871 52.15 100.704 52.1108 100.558 52.0269Z" fill="black"/>
<path opacity="0.1" d="M102.005 50.7377C102.258 50.4175 102.591 50.1441 102.829 49.8088C102.876 49.7417 102.919 49.6713 102.96 49.6008C102.653 49.9915 102.233 50.3017 102.005 50.7377Z" fill="black"/>
</g>
<defs>
<linearGradient id="paint0_linear" x1="89.616" y1="109.842" x2="89.616" y2="42.2023" gradientUnits="userSpaceOnUse">
<stop stop-color="#808080" stop-opacity="0.25"/>
<stop offset="0.54" stop-color="#808080" stop-opacity="0.12"/>
<stop offset="1" stop-color="#808080" stop-opacity="0.1"/>
</linearGradient>
</defs>
</svg>
