<svg width="119" height="110" viewBox="0 0 119 110" fill="none" xmlns="http://www.w3.org/2000/svg">
<g clip-path="url(#clip0)">
<ellipse cx="78.1297" cy="107.198" rx="37.4656" ry="1.7909" fill="#E5EDFA"/>
<ellipse rx="5.59297" ry="0.682959" transform="matrix(0.999999 -0.00133167 0.00133973 0.999999 27.0353 101.848)" fill="#E5EDFA"/>
<path d="M66.8164 0.251953L62.6112 1.33312L10.803 14.6533L6.59786 15.7345C4.55673 16.2617 2.80872 17.5746 1.73731 19.3852C0.665908 21.1957 0.358609 23.3561 0.882835 25.3923L19.1173 95.8889C19.6461 97.9239 20.963 99.6667 22.779 100.735C24.595 101.803 26.7619 102.109 28.8042 101.587L28.815 101.584L89.0118 86.1071L89.0227 86.1043C91.0638 85.5771 92.8118 84.2641 93.8832 82.4536C94.9546 80.643 95.2619 78.4827 94.7377 76.4465L76.5033 5.94985C75.9744 3.91485 74.6576 2.17208 72.8416 1.10388C71.0255 0.0356875 68.8587 -0.270695 66.8164 0.251953Z" fill="#19355C"/>
<path d="M67.3902 2.46229L62.4095 3.74285L12.1523 16.6643L7.1717 17.9448C5.71816 18.3203 4.47335 19.2552 3.71038 20.5446C2.9474 21.8339 2.72856 23.3723 3.10187 24.8224L21.3363 95.319C21.7129 96.7682 22.6507 98.0092 23.9439 98.7699C25.2371 99.5306 26.7802 99.7488 28.2346 99.3766L28.2454 99.3738L88.4422 83.8969L88.4531 83.8941C89.9066 83.5186 91.1514 82.5836 91.9144 81.2943C92.6773 80.005 92.8962 78.4665 92.5229 77.0165L74.2884 6.51989C73.9119 5.07074 72.9741 3.82968 71.6809 3.06899C70.3877 2.3083 68.8446 2.09011 67.3902 2.46229Z" fill="white"/>
<path d="M63.6286 25.2913L33.1766 33.1207C32.8364 33.2082 32.4754 33.1573 32.1729 32.9794C31.8704 32.8014 31.6512 32.511 31.5634 32.1719C31.4757 31.8328 31.5267 31.4728 31.7052 31.1712C31.8837 30.8696 32.175 30.651 32.5151 30.5636L62.9672 22.7342C63.3072 22.6471 63.668 22.6981 63.9703 22.8761C64.2725 23.0541 64.4916 23.3444 64.5792 23.6833C64.6669 24.0222 64.616 24.3819 64.4378 24.6835C64.2595 24.985 63.9685 25.2036 63.6286 25.2913Z" fill="#F2F2F2"/>
<path d="M70.0358 28.2464L34.2938 37.4359C33.9536 37.5234 33.5926 37.4725 33.2901 37.2946C32.9876 37.1166 32.7683 36.8262 32.6806 36.4871C32.5929 36.148 32.6439 35.788 32.8224 35.4864C33.0009 35.1848 33.2922 34.9662 33.6323 34.8788L69.3744 25.6893C69.7145 25.6018 70.0756 25.6527 70.3781 25.8306C70.6806 26.0086 70.8998 26.299 70.9876 26.6381C71.0753 26.9772 71.0243 27.3372 70.8458 27.6388C70.6673 27.9404 70.376 28.159 70.0358 28.2464Z" fill="#F2F2F2"/>
<path d="M68.6306 44.6292L38.1785 52.4587C38.0101 52.502 37.8348 52.5118 37.6626 52.4875C37.4904 52.4633 37.3246 52.4054 37.1749 52.3173C37.0251 52.2292 36.8941 52.1126 36.7896 51.974C36.685 51.8354 36.6088 51.6777 36.5654 51.5098C36.522 51.3419 36.5121 51.1671 36.5365 50.9954C36.5608 50.8237 36.6188 50.6585 36.7072 50.5092C36.7955 50.3598 36.9125 50.2293 37.0515 50.125C37.1905 50.0208 37.3487 49.9448 37.5171 49.9015L67.9691 42.0721C68.1375 42.0288 68.3129 42.019 68.4851 42.0433C68.6573 42.0675 68.823 42.1253 68.9728 42.2134C69.1226 42.3016 69.2535 42.4182 69.3581 42.5568C69.4627 42.6953 69.5388 42.8531 69.5823 43.021C69.6257 43.1889 69.6355 43.3636 69.6112 43.5353C69.5869 43.707 69.5289 43.8723 69.4405 44.0216C69.3521 44.171 69.2351 44.3015 69.0961 44.4057C68.9572 44.51 68.799 44.5859 68.6306 44.6292Z" fill="#F2F2F2"/>
<path d="M75.0378 47.5846L39.2957 56.774C39.1273 56.8173 38.952 56.8271 38.7798 56.8029C38.6076 56.7786 38.4418 56.7208 38.292 56.6327C38.1422 56.5446 38.0113 56.4279 37.9068 56.2894C37.8022 56.1508 37.726 55.9931 37.6826 55.8252C37.6392 55.6573 37.6293 55.4825 37.6536 55.3108C37.678 55.1391 37.736 54.9739 37.8243 54.8245C37.9127 54.6752 38.0297 54.5447 38.1687 54.4404C38.3077 54.3362 38.4659 54.2602 38.6343 54.2169L74.3764 45.0274C74.7165 44.94 75.0775 44.9908 75.38 45.1688C75.6826 45.3467 75.9018 45.6372 75.9895 45.9763C76.0772 46.3154 76.0262 46.6753 75.8477 46.9769C75.6692 47.2785 75.3779 47.4971 75.0378 47.5846Z" fill="#F2F2F2"/>
<path d="M73.6336 63.9676L43.1815 71.797C42.8415 71.8842 42.4807 71.8332 42.1784 71.6552C41.876 71.4773 41.657 71.1869 41.5693 70.8479C41.4816 70.509 41.5325 70.1492 41.7108 69.8477C41.8891 69.5461 42.1802 69.3275 42.5201 69.2399L72.9722 61.4105C73.3123 61.323 73.6734 61.3739 73.9759 61.5518C74.2784 61.7298 74.4976 62.0202 74.5853 62.3593C74.6731 62.6984 74.6221 63.0584 74.4436 63.36C74.2651 63.6616 73.9738 63.8802 73.6336 63.9676Z" fill="#F2F2F2"/>
<path d="M80.0399 66.9227L44.2978 76.1122C44.1294 76.1556 43.9539 76.1656 43.7816 76.1414C43.6093 76.1173 43.4434 76.0595 43.2935 75.9714C43.1436 75.8833 43.0126 75.7666 42.9079 75.628C42.8033 75.4894 42.727 75.3316 42.6836 75.1636C42.6401 74.9956 42.6303 74.8207 42.6547 74.6489C42.679 74.4772 42.7371 74.3118 42.8256 74.1625C42.9141 74.0131 43.0313 73.8825 43.1704 73.7783C43.3095 73.6741 43.4679 73.5982 43.6364 73.555L79.3785 64.3656C79.7186 64.2781 80.0796 64.329 80.3821 64.5069C80.6847 64.6848 80.9039 64.9753 80.9916 65.3144C81.0793 65.6535 81.0283 66.0135 80.8498 66.3151C80.6714 66.6167 80.38 66.8353 80.0399 66.9227Z" fill="#F2F2F2"/>
<path d="M27.9766 41.1482L17.1999 43.9189C17.0368 43.9607 16.8638 43.9362 16.7188 43.8509C16.5737 43.7656 16.4686 43.6265 16.4264 43.464L13.9526 33.9C13.9107 33.7374 13.9353 33.5649 14.0208 33.4203C14.1064 33.2757 14.2459 33.1709 14.4089 33.1288L25.1856 30.358C25.3487 30.3163 25.5217 30.3408 25.6667 30.4261C25.8118 30.5114 25.9169 30.6505 25.9591 30.813L28.4329 40.377C28.4748 40.5396 28.4502 40.7121 28.3647 40.8567C28.2791 41.0012 28.1396 41.1061 27.9766 41.1482Z" fill="#E6E6E6"/>
<path d="M32.9815 60.4867L22.2047 63.2574C22.0417 63.2992 21.8686 63.2747 21.7236 63.1894C21.5786 63.1041 21.4735 62.9649 21.4312 62.8024L18.9575 53.2385C18.9156 53.0759 18.9401 52.9034 19.0257 52.7588C19.1112 52.6142 19.2508 52.5094 19.4138 52.4673L30.1905 49.6965C30.3536 49.6548 30.5266 49.6793 30.6716 49.7646C30.8166 49.8499 30.9218 49.989 30.964 50.1515L33.4378 59.7155C33.4797 59.8781 33.4551 60.0506 33.3696 60.1952C33.284 60.3397 33.1444 60.4446 32.9815 60.4867Z" fill="#E6E6E6"/>
<path d="M37.9805 79.825L27.2038 82.5958C27.0407 82.6375 26.8677 82.613 26.7227 82.5277C26.5776 82.4424 26.4725 82.3033 26.4303 82.1408L23.9565 72.5768C23.9146 72.4143 23.9392 72.2418 24.0247 72.0972C24.1103 71.9526 24.2498 71.8478 24.4128 71.8057L35.1895 69.0349C35.3526 68.9932 35.5256 69.0176 35.6707 69.1029C35.8157 69.1882 35.9208 69.3274 35.963 69.4899L38.4368 79.0538C38.4787 79.2164 38.4541 79.3889 38.3686 79.5335C38.283 79.6781 38.1435 79.7829 37.9805 79.825Z" fill="#E6E6E6"/>
<path d="M108.82 18.1221L46.6316 18.1221C44.5231 18.1244 42.5016 18.9606 41.0107 20.4471C39.5197 21.9335 38.6811 23.9489 38.6787 26.0511L38.6787 98.8541C38.6811 100.956 39.5197 102.972 41.0107 104.458C42.5016 105.945 44.5231 106.781 46.6316 106.783L108.82 106.783C110.929 106.781 112.95 105.945 114.441 104.458C115.932 102.972 116.771 100.956 116.773 98.8541L116.773 26.0511C116.771 23.9489 115.932 21.9335 114.441 20.4471C112.95 18.9606 110.929 18.1244 108.82 18.1221Z" fill="#19355C"/>
<path d="M108.819 20.4049L46.6303 20.4049C45.1287 20.4066 43.6892 21.002 42.6274 22.0606C41.5657 23.1191 40.9685 24.5543 40.9668 26.0514L40.9668 98.8544C40.9685 100.351 41.5657 101.787 42.6274 102.845C43.6892 103.904 45.1287 104.499 46.6303 104.501L108.819 104.501C110.32 104.499 111.76 103.904 112.822 102.845C113.883 101.787 114.481 100.351 114.482 98.8544L114.482 26.0514C114.481 24.5543 113.883 23.1191 112.822 22.0606C111.76 21.002 110.32 20.4066 108.819 20.4049Z" fill="white"/>
<path d="M99.4578 60.4095L68.0094 60.4095C67.8354 60.4097 67.663 60.3757 67.5022 60.3095C67.3413 60.2432 67.1952 60.146 67.072 60.0233C66.9489 59.9007 66.8512 59.7551 66.7845 59.5948C66.7179 59.4345 66.6836 59.2627 66.6836 59.0892C66.6836 58.9157 66.7179 58.7438 66.7845 58.5835C66.8512 58.4233 66.9489 58.2776 67.072 58.155C67.1952 58.0324 67.3413 57.9351 67.5022 57.8689C67.663 57.8026 67.8354 57.7686 68.0094 57.7688L99.4578 57.7688C99.8088 57.7692 100.145 57.9085 100.393 58.156C100.641 58.4036 100.781 58.7392 100.781 59.0892C100.781 59.4391 100.641 59.7747 100.393 60.0223C100.145 60.2699 99.8088 60.4092 99.4578 60.4095Z" fill="#E6E6E6"/>
<path d="M104.921 64.8663L68.0094 64.8663C67.8354 64.8664 67.663 64.8324 67.5022 64.7662C67.3413 64.6999 67.1952 64.6027 67.072 64.48C66.9489 64.3574 66.8512 64.2118 66.7845 64.0515C66.7179 63.8912 66.6836 63.7194 66.6836 63.5459C66.6836 63.3723 66.7179 63.2005 66.7845 63.0402C66.8512 62.8799 66.9489 62.7343 67.072 62.6117C67.1952 62.489 67.3413 62.3918 67.5022 62.3255C67.663 62.2593 67.8354 62.2253 68.0094 62.2255L104.921 62.2255C105.272 62.2255 105.609 62.3646 105.857 62.6122C106.106 62.8598 106.245 63.1957 106.245 63.5459C106.245 63.896 106.106 64.2319 105.857 64.4795C105.609 64.7271 105.272 64.8663 104.921 64.8663Z" fill="#E6E6E6"/>
<path d="M99.4578 80.3808L68.0094 80.3808C67.8354 80.381 67.663 80.3469 67.5022 80.2807C67.3413 80.2144 67.1952 80.1172 67.072 79.9946C66.9489 79.8719 66.8512 79.7263 66.7845 79.566C66.7179 79.4057 66.6836 79.2339 66.6836 79.0604C66.6836 78.8869 66.7179 78.715 66.7845 78.5547C66.8512 78.3945 66.9489 78.2488 67.072 78.1262C67.1952 78.0036 67.3413 77.9063 67.5022 77.8401C67.663 77.7738 67.8354 77.7398 68.0094 77.74L99.4578 77.74C99.809 77.74 100.146 77.8791 100.394 78.1267C100.643 78.3743 100.782 78.7102 100.782 79.0604C100.782 79.4106 100.643 79.7464 100.394 79.994C100.146 80.2417 99.809 80.3808 99.4578 80.3808Z" fill="#E6E6E6"/>
<path d="M104.921 84.8373L68.0094 84.8373C67.8354 84.8375 67.663 84.8035 67.5022 84.7373C67.3413 84.671 67.1952 84.5738 67.072 84.4511C66.9489 84.3285 66.8512 84.1829 66.7845 84.0226C66.7179 83.8623 66.6836 83.6905 66.6836 83.5169C66.6836 83.3434 66.7179 83.1716 66.7845 83.0113C66.8512 82.851 66.9489 82.7054 67.072 82.5827C67.1952 82.4601 67.3413 82.3629 67.5022 82.2966C67.663 82.2304 67.8354 82.1963 68.0094 82.1965L104.921 82.1965C105.095 82.1963 105.267 82.2304 105.428 82.2966C105.589 82.3629 105.735 82.4601 105.858 82.5827C105.981 82.7054 106.079 82.851 106.146 83.0113C106.212 83.1716 106.247 83.3434 106.247 83.5169C106.247 83.6905 106.212 83.8623 106.146 84.0226C106.079 84.1829 105.981 84.3285 105.858 84.4511C105.735 84.5738 105.589 84.671 105.428 84.7373C105.267 84.8035 105.095 84.8375 104.921 84.8373Z" fill="#E6E6E6"/>
<path d="M60.9655 66.8892H49.8362C49.6678 66.889 49.5064 66.8222 49.3874 66.7035C49.2683 66.5848 49.2014 66.4239 49.2012 66.256V56.3792C49.2014 56.2114 49.2683 56.0504 49.3874 55.9317C49.5064 55.813 49.6678 55.7463 49.8362 55.7461H60.9655C61.1338 55.7463 61.2953 55.813 61.4143 55.9317C61.5334 56.0504 61.6003 56.2114 61.6005 56.3792V66.256C61.6003 66.4239 61.5334 66.5848 61.4143 66.7035C61.2953 66.8222 61.1338 66.889 60.9655 66.8892Z" fill="#E6E6E6"/>
<path d="M60.9655 86.86H49.8362C49.6678 86.8598 49.5064 86.7931 49.3874 86.6744C49.2683 86.5557 49.2014 86.3948 49.2012 86.2269V76.35C49.2014 76.1822 49.2683 76.0213 49.3874 75.9026C49.5064 75.7839 49.6678 75.7171 49.8362 75.7169H60.9655C61.1338 75.7171 61.2953 75.7839 61.4143 75.9026C61.5334 76.0213 61.6003 76.1822 61.6005 76.35V86.2269C61.6003 86.3948 61.5334 86.5557 61.4143 86.6744C61.2953 86.7931 61.1338 86.8598 60.9655 86.86Z" fill="#E6E6E6"/>
<path d="M99.4953 38.178L76.3097 38.178C75.9585 38.178 75.6216 38.0389 75.3733 37.7913C75.1249 37.5437 74.9854 37.2078 74.9854 36.8576C74.9854 36.5074 75.1249 36.1716 75.3733 35.924C75.6216 35.6763 75.9585 35.5372 76.3097 35.5372L99.4953 35.5372C99.8466 35.5372 100.183 35.6763 100.432 35.924C100.68 36.1716 100.82 36.5074 100.82 36.8576C100.82 37.2078 100.68 37.5437 100.432 37.7913C100.183 38.0389 99.8466 38.178 99.4953 38.178Z" fill="#CCCCCC"/>
<path d="M104.958 42.6346L76.3097 42.6346C76.1358 42.6346 75.9636 42.6004 75.8029 42.5341C75.6422 42.4677 75.4962 42.3704 75.3733 42.2478C75.2503 42.1252 75.1527 41.9797 75.0862 41.8195C75.0196 41.6593 74.9854 41.4876 74.9854 41.3142C74.9854 41.1408 75.0196 40.9691 75.0862 40.8089C75.1527 40.6487 75.2503 40.5031 75.3733 40.3805C75.4962 40.2579 75.6422 40.1606 75.8029 40.0943C75.9636 40.0279 76.1358 39.9938 76.3097 39.9938L104.958 39.9938C105.31 39.9938 105.646 40.1329 105.895 40.3805C106.143 40.6281 106.283 40.964 106.283 41.3142C106.283 41.6644 106.143 42.0002 105.895 42.2478C105.646 42.4955 105.31 42.6346 104.958 42.6346Z" fill="#CCCCCC"/>
<path d="M71.1752 48.0353L49.8001 48.0353C49.6317 48.0351 49.4703 47.9684 49.3512 47.8497C49.2322 47.731 49.1652 47.5701 49.165 47.4022L49.165 30.7702C49.1652 30.6024 49.2322 30.4414 49.3512 30.3227C49.4703 30.204 49.6317 30.1373 49.8001 30.1371L71.1752 30.1371C71.3435 30.1373 71.505 30.204 71.624 30.3227C71.7431 30.4414 71.81 30.6024 71.8102 30.7702V47.4022C71.81 47.5701 71.7431 47.731 71.624 47.8497C71.505 47.9684 71.3435 48.0351 71.1752 48.0353Z" fill="#CB4B4B"/>
</g>
<defs>
<clipPath id="clip0">
<rect width="117.404" height="110" fill="white" transform="translate(0.631836)"/>
</clipPath>
</defs>
</svg>
