<svg width="314" height="150" viewBox="0 0 314 150" fill="none" xmlns="http://www.w3.org/2000/svg">
<g clip-path="url(#clip0_32_2)">
<path d="M245.279 22.536H168.282V20.9508H133.369V22.536H56.0554C54.6739 22.536 53.3491 23.0841 52.3723 24.0599C51.3954 25.0356 50.8467 26.3591 50.8467 27.739V133.056C50.8467 134.436 51.3954 135.759 52.3723 136.735C53.3491 137.711 54.6739 138.259 56.0554 138.259H245.279C246.66 138.259 247.985 137.711 248.962 136.735C249.939 135.759 250.488 134.436 250.488 133.056V27.7384C250.487 26.3586 249.939 25.0353 248.962 24.0597C247.985 23.0841 246.66 22.536 245.279 22.536Z" fill="#3F3D56"/>
<path d="M243.504 31.7302H57.8299V136.356H243.504V31.7302Z" fill="#E6E6E6"/>
<path d="M235.694 37.2632H65.7041V127.699H235.694V37.2632Z" fill="white"/>
<path d="M150.508 28.8771C151.56 28.8771 152.413 28.0254 152.413 26.9747C152.413 25.9241 151.56 25.0724 150.508 25.0724C149.457 25.0724 148.604 25.9241 148.604 26.9747C148.604 28.0254 149.457 28.8771 150.508 28.8771Z" fill="#6C63FF"/>
<path d="M255.7 134.454H237.58V133.15C237.58 133.081 237.553 133.015 237.504 132.967C237.456 132.918 237.39 132.891 237.321 132.891H231.108C231.039 132.891 230.974 132.918 230.925 132.967C230.876 133.015 230.849 133.081 230.849 133.15V134.454H226.966V133.15C226.966 133.081 226.939 133.015 226.89 132.967C226.842 132.918 226.776 132.891 226.707 132.891H220.495C220.426 132.891 220.36 132.918 220.311 132.967C220.263 133.015 220.236 133.081 220.236 133.15V134.454H216.353V133.15C216.353 133.081 216.326 133.015 216.277 132.967C216.228 132.918 216.163 132.891 216.094 132.891H209.881C209.812 132.891 209.746 132.918 209.698 132.967C209.649 133.015 209.622 133.081 209.622 133.15V134.454H205.739V133.15C205.739 133.081 205.712 133.015 205.663 132.967C205.615 132.918 205.549 132.891 205.48 132.891H199.268C199.199 132.891 199.133 132.918 199.085 132.967C199.036 133.015 199.009 133.081 199.009 133.15V134.454H195.126V133.15C195.126 133.081 195.098 133.015 195.05 132.967C195.001 132.918 194.935 132.891 194.867 132.891H188.654C188.586 132.891 188.52 132.918 188.471 132.967C188.423 133.015 188.395 133.081 188.395 133.15V134.454H184.512V133.15C184.512 133.081 184.485 133.015 184.436 132.967C184.388 132.918 184.322 132.891 184.253 132.891H178.042C177.973 132.891 177.907 132.918 177.859 132.967C177.81 133.015 177.783 133.081 177.783 133.15V134.454H173.899V133.15C173.899 133.081 173.871 133.015 173.823 132.967C173.774 132.918 173.708 132.891 173.64 132.891H124.973C124.904 132.891 124.838 132.918 124.79 132.967C124.741 133.015 124.714 133.081 124.714 133.15V134.454H120.831V133.15C120.831 133.081 120.804 133.015 120.755 132.967C120.707 132.918 120.641 132.891 120.572 132.891H114.359C114.291 132.891 114.225 132.918 114.176 132.967C114.128 133.015 114.1 133.081 114.1 133.15V134.454H110.218V133.15C110.218 133.081 110.19 133.015 110.142 132.967C110.093 132.918 110.027 132.891 109.959 132.891H103.746C103.677 132.891 103.612 132.918 103.563 132.967C103.514 133.015 103.487 133.081 103.487 133.15V134.454H99.604V133.15C99.604 133.081 99.5767 133.015 99.5281 132.967C99.4796 132.918 99.4137 132.891 99.345 132.891H93.1325C93.0638 132.891 92.998 132.918 92.9494 132.967C92.9008 133.015 92.8736 133.081 92.8736 133.15V134.454H88.9913V133.15C88.9913 133.081 88.9641 133.015 88.9155 132.967C88.8669 132.918 88.8011 132.891 88.7324 132.891H82.519C82.4503 132.891 82.3844 132.918 82.3359 132.967C82.2873 133.015 82.26 133.081 82.26 133.15V134.454H78.3772V133.15C78.3772 133.081 78.3499 133.015 78.3013 132.967C78.2528 132.918 78.1869 132.891 78.1182 132.891H71.9054C71.8367 132.891 71.7709 132.918 71.7223 132.967C71.6737 133.015 71.6465 133.081 71.6465 133.15V134.454H67.7636V133.15C67.7636 133.081 67.7364 133.015 67.6878 132.967C67.6392 132.918 67.5734 132.891 67.5047 132.891H61.2907C61.222 132.891 61.1561 132.918 61.1076 132.967C61.059 133.015 61.0317 133.081 61.0317 133.15V134.454H49.1252C47.4774 134.454 45.8972 135.108 44.732 136.272C43.5669 137.435 42.9124 139.014 42.9124 140.66V143.466C42.9124 145.112 43.5669 146.691 44.732 147.854C45.8972 149.018 47.4774 149.672 49.1252 149.672H255.7C257.348 149.672 258.928 149.018 260.093 147.855C261.259 146.691 261.913 145.112 261.913 143.466V140.66C261.913 139.014 261.259 137.436 260.094 136.272C258.928 135.108 257.348 134.454 255.7 134.454V134.454Z" fill="#3F3D56"/>
<path d="M188.284 43.6061H113.114V122.538H188.284V43.6061Z" fill="#E6E6E6"/>
<path d="M314 149.409H0V150H314V149.409Z" fill="#E6E6E6"/>
<path d="M283.505 128.755C287.759 133.315 287.979 140.018 287.979 140.018C287.979 140.018 281.301 139.327 277.047 134.767C272.792 130.206 272.572 123.503 272.572 123.503C272.572 123.503 279.25 124.194 283.505 128.755Z" fill="#0053CC"/>
<path d="M296.898 135.873C292.333 140.123 285.623 140.343 285.623 140.343C285.623 140.343 286.315 133.672 290.88 129.422C295.445 125.172 302.156 124.953 302.156 124.953C302.156 124.953 301.464 131.623 296.898 135.873Z" fill="#0053CC"/>
<path d="M295.764 149.408H278.972C278.65 149.409 278.334 149.318 278.061 149.147C277.788 148.977 277.568 148.733 277.427 148.443L273.772 140.936C273.644 140.675 273.585 140.385 273.6 140.095C273.616 139.804 273.705 139.522 273.859 139.275C274.014 139.029 274.229 138.825 274.483 138.685C274.738 138.544 275.025 138.47 275.316 138.47H299.42C299.711 138.47 299.998 138.544 300.253 138.685C300.507 138.825 300.722 139.029 300.877 139.275C301.031 139.522 301.12 139.804 301.136 140.095C301.151 140.385 301.092 140.675 300.964 140.936L297.309 148.443C297.168 148.733 296.948 148.977 296.675 149.148C296.402 149.318 296.086 149.409 295.764 149.409L295.764 149.408Z" fill="#E5E5E5"/>
<path d="M18.0401 128.755C22.2946 133.315 22.5145 140.018 22.5145 140.018C22.5145 140.018 15.8364 139.327 11.5819 134.767C7.32737 130.206 7.10748 123.503 7.10748 123.503C7.10748 123.503 13.7855 124.194 18.0401 128.755Z" fill="#E5E5E5"/>
<path d="M27.6356 149.408H10.8438C10.5216 149.409 10.2059 149.318 9.93276 149.147C9.65962 148.977 9.44008 148.733 9.29926 148.443L5.64343 140.936C5.51577 140.675 5.45683 140.385 5.47217 140.095C5.48751 139.804 5.57662 139.522 5.73111 139.275C5.8856 139.029 6.10039 138.825 6.35526 138.685C6.61013 138.544 6.8967 138.47 7.18798 138.47H31.2917C31.583 138.47 31.8695 138.544 32.1244 138.685C32.3793 138.825 32.5941 139.029 32.7486 139.275C32.9031 139.522 32.9922 139.804 33.0075 140.095C33.0228 140.385 32.9639 140.675 32.8362 140.936L29.1804 148.443C29.0396 148.733 28.8201 148.977 28.5469 149.148C28.2738 149.318 27.958 149.409 27.6359 149.409L27.6356 149.408Z" fill="#E5E5E5"/>
<path d="M159.769 65.9505C165.286 65.9505 169.759 61.4825 169.759 55.971C169.759 50.4595 165.286 45.9916 159.769 45.9916C154.251 45.9916 149.779 50.4595 149.779 55.971C149.779 61.4825 154.251 65.9505 159.769 65.9505Z" fill="#A0616A"/>
<path d="M136.783 122.701L143.234 82.1302C143.577 79.9731 144.376 77.9137 145.578 76.0891C146.78 74.2644 148.357 72.7164 150.204 71.5479C152.051 70.3794 154.126 69.6172 156.292 69.3122C158.457 69.0071 160.662 69.1661 162.761 69.7786C166.43 70.8387 169.572 73.2274 171.573 76.4778C173.574 79.7283 174.29 83.6071 173.581 87.3565L166.833 123.588L136.783 122.701Z" fill="#0053CC"/>
<path d="M162.527 129.96C163.026 129.631 163.447 129.196 163.759 128.687C164.072 128.178 164.269 127.607 164.337 127.013C164.405 126.42 164.341 125.819 164.151 125.252C163.961 124.686 163.649 124.168 163.237 123.735L169.907 110.834L162.396 111.635L157.214 123.763C156.535 124.504 156.151 125.467 156.134 126.471C156.117 127.475 156.468 128.45 157.122 129.213C157.776 129.976 158.687 130.473 159.683 130.611C160.678 130.748 161.69 130.517 162.527 129.96L162.527 129.96Z" fill="#A0616A"/>
<path d="M163.955 121.46C163.586 121.408 163.242 121.245 162.968 120.992L160.417 118.637C160.141 118.381 159.951 118.047 159.871 117.68C159.792 117.313 159.827 116.93 159.973 116.584L165.073 104.509L164.349 80.6502C164.56 79.1024 165.379 77.7018 166.624 76.7566C167.869 75.8115 169.439 75.3991 170.988 75.6102C172.538 75.8214 173.94 76.6387 174.886 77.8825C175.832 79.1263 176.245 80.6946 176.034 82.2425L177.271 97.2405C177.647 101.792 176.355 106.326 173.635 109.997L165.682 120.737C165.529 120.944 165.335 121.115 165.111 121.242C164.887 121.368 164.639 121.446 164.383 121.47C164.241 121.484 164.097 121.48 163.955 121.46Z" fill="#0053CC"/>
<path d="M102.238 50.5338C102.346 51.1211 102.583 51.6775 102.93 52.1636C103.278 52.6498 103.728 53.054 104.248 53.3477C104.769 53.6414 105.348 53.8175 105.944 53.8636C106.54 53.9097 107.139 53.8247 107.699 53.6145L116.991 64.7792L119.181 57.5582L110.021 48.063C109.603 47.1501 108.865 46.4216 107.947 46.0149C107.028 45.6082 105.992 45.5516 105.034 45.8556C104.077 46.1596 103.263 46.8033 102.748 47.6651C102.233 48.527 102.051 49.5474 102.238 50.5338Z" fill="#A0616A"/>
<path d="M109.517 55.1616C109.709 54.8425 109.994 54.5895 110.333 54.4361L113.5 53.0073C113.843 52.8534 114.225 52.8085 114.595 52.8787C114.964 52.9489 115.303 53.1307 115.566 53.3996L124.709 62.7985L146.985 71.4352C147.652 71.83 148.234 72.3521 148.698 72.9716C149.162 73.5912 149.499 74.296 149.691 75.0458C149.882 75.7957 149.924 76.5759 149.813 77.3418C149.702 78.1077 149.442 78.8443 149.046 79.5096C148.651 80.1748 148.127 80.7557 147.507 81.219C146.886 81.6822 146.181 82.0188 145.43 82.2095C144.679 82.4002 143.898 82.4412 143.131 82.3302C142.365 82.2193 141.627 81.9585 140.962 81.5628L126.654 76.8528C122.311 75.424 118.635 72.468 116.311 68.5348L109.511 57.032C109.381 56.8108 109.298 56.5646 109.269 56.3094C109.24 56.0542 109.265 55.7958 109.342 55.5509C109.385 55.4147 109.444 55.2842 109.518 55.1619L109.517 55.1616Z" fill="#0053CC"/>
<path opacity="0.1" d="M167.872 90.575L167.466 103.577L159.972 116.584L166.229 102.09L167.872 90.575Z" fill="black"/>
<path d="M153.003 50.969C154.034 52.1873 155.777 52.5308 157.386 52.6719C160.653 52.958 165.404 52.4945 168.596 51.7575C168.824 53.9637 168.203 56.3424 169.504 58.1572C170.114 55.9601 170.468 53.7001 170.561 51.4219C170.6 50.4464 170.585 49.4342 170.187 48.5372C169.79 47.6403 168.923 46.8791 167.925 46.8711C168.666 46.3091 169.535 45.9381 170.454 45.7909L167.293 44.2042L168.105 43.3717L162.383 43.022L164.04 41.9702C161.546 41.6281 159.022 41.5488 156.511 41.7337C155.345 41.8194 154.125 41.9835 153.181 42.6584C152.236 43.3333 151.69 44.6746 152.277 45.6655C151.542 45.786 150.851 46.0917 150.268 46.5537C149.685 47.0158 149.23 47.6188 148.946 48.3058C148.524 49.3724 148.563 50.5572 148.693 51.6939C148.908 53.5118 149.331 55.2992 149.954 57.0211" fill="#2F2E41"/>
<path d="M195.711 25.969L104.679 46.9628C104.232 47.0653 103.762 46.9865 103.373 46.7437C102.984 46.5009 102.707 46.1139 102.604 45.6676L97.3904 23.1107C97.2877 22.6642 97.3666 22.1952 97.6097 21.8066C97.8527 21.418 98.2402 21.1416 98.687 21.038L189.72 0.0442558C190.167 -0.058281 190.636 0.0204931 191.025 0.263296C191.414 0.506099 191.691 0.893104 191.795 1.33943L197.008 23.8963C197.111 24.3429 197.032 24.8119 196.789 25.2004C196.546 25.589 196.158 25.8654 195.711 25.969Z" fill="white"/>
<path d="M195.711 25.969L104.679 46.9628C104.232 47.0653 103.762 46.9865 103.373 46.7437C102.984 46.5009 102.707 46.1139 102.604 45.6676L97.3904 23.1107C97.2877 22.6642 97.3666 22.1952 97.6097 21.8066C97.8527 21.418 98.2402 21.1416 98.687 21.038L189.72 0.0442558C190.167 -0.058281 190.636 0.0204931 191.025 0.263296C191.414 0.506099 191.691 0.893104 191.795 1.33943L197.008 23.8963C197.111 24.3429 197.032 24.8119 196.789 25.2004C196.546 25.589 196.158 25.8654 195.711 25.969ZM98.8427 21.7118C98.5745 21.7739 98.3421 21.9398 98.1962 22.1729C98.0503 22.4061 98.003 22.6876 98.0646 22.9555L103.278 45.5124C103.34 45.7803 103.506 46.0126 103.74 46.1583C103.973 46.304 104.255 46.3512 104.523 46.2896L195.556 25.2958C195.824 25.2337 196.057 25.0679 196.202 24.8347C196.348 24.6015 196.396 24.32 196.334 24.0521L191.12 1.49489C191.058 1.22702 190.892 0.994725 190.659 0.84901C190.425 0.703294 190.144 0.656066 189.875 0.717693L98.8427 21.7118Z" fill="#E6E6E6"/>
<path d="M115.68 36.846C119.572 36.846 122.728 33.694 122.728 29.8059C122.728 25.9178 119.572 22.7659 115.68 22.7659C111.788 22.7659 108.632 25.9178 108.632 29.8059C108.632 33.694 111.788 36.846 115.68 36.846Z" fill="#0053CC"/>
<path d="M115.482 33.8672C115.251 33.9208 115.009 33.8979 114.793 33.8022L114.779 33.7962L111.943 32.5102C111.812 32.4506 111.693 32.3657 111.594 32.2603C111.496 32.1548 111.419 32.031 111.368 31.8958C111.317 31.7606 111.293 31.6168 111.298 31.4725C111.303 31.3281 111.336 31.1862 111.396 31.0548C111.456 30.9233 111.541 30.8049 111.647 30.7064C111.753 30.6079 111.877 30.5311 112.012 30.4806C112.148 30.43 112.292 30.4066 112.436 30.4116C112.581 30.4167 112.723 30.4502 112.854 30.5102L114.692 31.3458L117.27 25.6875C117.39 25.4226 117.611 25.2165 117.884 25.1144C118.157 25.0123 118.459 25.0227 118.725 25.1432L118.709 25.1802L118.725 25.143C118.991 25.2639 119.197 25.4849 119.299 25.7575C119.401 26.03 119.391 26.3319 119.27 26.5969L116.238 33.2531C116.168 33.4065 116.063 33.5416 115.932 33.648C115.801 33.7544 115.648 33.8292 115.483 33.8667L115.482 33.8672Z" fill="white"/>
<path d="M126.967 31.5002L125.277 24.7072L128.625 23.8744C129.382 23.686 130.083 23.6594 130.728 23.7943C131.372 23.9228 131.918 24.1991 132.367 24.6232C132.816 25.0474 133.127 25.6088 133.301 26.3075C133.476 27.0127 133.466 27.6611 133.27 28.2526C133.072 28.8377 132.72 29.341 132.213 29.7624C131.705 30.1774 131.072 30.479 130.315 30.6673L126.967 31.5002ZM128.813 29.1449L129.774 28.9059C130.098 28.8254 130.364 28.6939 130.572 28.5115C130.788 28.3274 130.933 28.0988 131.01 27.8256C131.084 27.5459 131.078 27.2314 130.991 26.8821C130.906 26.5392 130.766 26.265 130.57 26.0594C130.375 25.8538 130.139 25.7202 129.863 25.6584C129.593 25.595 129.296 25.6036 128.973 25.6841L128.012 25.9231L128.813 29.1449ZM137.745 28.9219C137.144 29.0716 136.581 29.0879 136.057 28.9709C135.538 28.8458 135.095 28.6092 134.727 28.2612C134.358 27.9131 134.107 27.4706 133.974 26.9336C133.84 26.3967 133.855 25.8882 134.017 25.4081C134.179 24.9281 134.461 24.5145 134.862 24.1673C135.27 23.8185 135.775 23.5693 136.377 23.4196C136.978 23.2699 137.541 23.2536 138.065 23.3706C138.588 23.4876 139.031 23.721 139.393 24.0707C139.761 24.4187 140.012 24.8612 140.146 25.3982C140.279 25.9352 140.265 26.4437 140.103 26.9237C139.947 27.4021 139.666 27.819 139.26 28.1742C138.852 28.523 138.347 28.7722 137.745 28.9219ZM137.321 27.214C137.482 27.1737 137.618 27.0987 137.728 26.9889C137.838 26.8791 137.913 26.7368 137.952 26.5623C137.989 26.3812 137.98 26.1775 137.923 25.951C137.866 25.7181 137.779 25.537 137.665 25.4075C137.548 25.2715 137.416 25.1808 137.267 25.1354C137.118 25.0899 136.963 25.0873 136.801 25.1276C136.64 25.1678 136.504 25.2428 136.394 25.3526C136.284 25.4625 136.209 25.6047 136.17 25.7793C136.129 25.9474 136.138 26.1479 136.196 26.3808C136.252 26.6072 136.34 26.7916 136.457 26.9341C136.574 27.07 136.706 27.1607 136.855 27.2062C137.004 27.2516 137.159 27.2542 137.321 27.214ZM143.594 27.4668C143.142 27.5795 142.683 27.642 142.219 27.6544C141.755 27.6668 141.368 27.6292 141.057 27.5415L141.299 25.9459C141.589 26.0319 141.909 26.0759 142.26 26.0779C142.617 26.0784 142.954 26.0391 143.271 25.9603C143.536 25.8943 143.709 25.8274 143.788 25.7596C143.874 25.6901 143.907 25.6166 143.888 25.539C143.868 25.4613 143.8 25.42 143.682 25.415C143.562 25.4036 143.409 25.4107 143.223 25.4363C143.037 25.462 142.831 25.4892 142.605 25.5181C142.383 25.5389 142.155 25.5475 141.921 25.544C141.686 25.5405 141.464 25.503 141.254 25.4316C141.044 25.3603 140.86 25.2412 140.701 25.0745C140.541 24.9013 140.424 24.6627 140.348 24.3586C140.264 24.0222 140.289 23.6932 140.422 23.3716C140.561 23.0483 140.812 22.756 141.172 22.4944C141.538 22.2248 142.019 22.016 142.614 21.8679C143.002 21.7714 143.399 21.7104 143.805 21.685C144.211 21.6596 144.571 21.6867 144.886 21.7663L144.645 23.3619C144.336 23.2807 144.042 23.2472 143.764 23.2614C143.491 23.2676 143.241 23.2988 143.015 23.3551C142.736 23.4243 142.552 23.4977 142.461 23.5752C142.377 23.6511 142.343 23.7214 142.359 23.7861C142.379 23.8637 142.448 23.9083 142.568 23.9197C142.687 23.9312 142.84 23.9241 143.026 23.8984C143.212 23.8728 143.416 23.8496 143.637 23.8288C143.864 23.8 144.092 23.7913 144.321 23.8029C144.556 23.8064 144.778 23.8439 144.988 23.9152C145.198 23.9866 145.383 24.1089 145.543 24.2821C145.702 24.4488 145.818 24.6842 145.894 24.9883C145.973 25.3053 145.947 25.6278 145.815 25.9559C145.682 26.2775 145.433 26.5731 145.067 26.8427C144.7 27.1059 144.209 27.3139 143.594 27.4668ZM149.082 26.1017C148.629 26.2144 148.17 26.2769 147.706 26.2893C147.242 26.3017 146.855 26.2641 146.545 26.1764L146.786 24.5808C147.076 24.6668 147.396 24.7109 147.747 24.7129C148.104 24.7133 148.441 24.6741 148.758 24.5952C149.023 24.5292 149.196 24.4623 149.275 24.3945C149.361 24.3251 149.394 24.2515 149.375 24.1739C149.355 24.0963 149.287 24.055 149.169 24.05C149.049 24.0385 148.896 24.0456 148.71 24.0713C148.524 24.0969 148.318 24.1242 148.092 24.153C147.87 24.1738 147.642 24.1824 147.408 24.1789C147.173 24.1754 146.951 24.138 146.741 24.0666C146.531 23.9952 146.347 23.8762 146.188 23.7094C146.029 23.5362 145.911 23.2976 145.835 22.9935C145.751 22.6571 145.776 22.3281 145.909 22.0065C146.048 21.6833 146.299 21.3909 146.659 21.1294C147.025 20.8598 147.506 20.651 148.101 20.5029C148.489 20.4063 148.886 20.3453 149.292 20.3199C149.698 20.2945 150.058 20.3216 150.374 20.4012L150.132 21.9968C149.823 21.9156 149.529 21.8821 149.251 21.8964C148.978 21.9025 148.728 21.9338 148.502 21.9901C148.224 22.0593 148.039 22.1327 147.948 22.2102C147.864 22.2861 147.83 22.3564 147.846 22.421C147.866 22.4987 147.935 22.5432 148.055 22.5547C148.174 22.5661 148.327 22.559 148.513 22.5334C148.699 22.5077 148.903 22.4845 149.125 22.4637C149.351 22.4349 149.579 22.4263 149.808 22.4379C150.043 22.4414 150.265 22.4788 150.475 22.5502C150.685 22.6216 150.87 22.7439 151.03 22.9171C151.189 23.0838 151.306 23.3192 151.381 23.6232C151.46 23.9402 151.434 24.2628 151.302 24.5909C151.169 24.9125 150.92 25.2081 150.554 25.4777C150.187 25.7408 149.696 25.9488 149.082 26.1017ZM152.468 25.1563L151.147 19.8481L153.34 19.3025L154.661 24.6107L152.468 25.1563ZM152.138 19.1483C151.736 19.2481 151.39 19.221 151.097 19.0671C150.805 18.9131 150.619 18.6776 150.54 18.3606C150.461 18.0436 150.515 17.7486 150.701 17.4756C150.887 17.2025 151.181 17.0161 151.582 16.9163C151.983 16.8165 152.329 16.8371 152.618 16.9781C152.907 17.1191 153.091 17.3481 153.17 17.6652C153.254 18.0016 153.203 18.3095 153.019 18.589C152.832 18.8621 152.539 19.0485 152.138 19.1483ZM158.588 23.7368C157.941 23.8977 157.345 23.9189 156.8 23.8002C156.262 23.68 155.809 23.4458 155.44 23.0977C155.071 22.7432 154.82 22.3039 154.69 21.7799C154.556 21.2429 154.568 20.7352 154.723 20.2568C154.886 19.7768 155.164 19.364 155.559 19.0184C155.96 18.6712 156.446 18.4268 157.015 18.2852C157.539 18.1548 158.047 18.1384 158.538 18.236C159.036 18.332 159.468 18.5508 159.835 18.8924C160.208 19.2323 160.47 19.7032 160.619 20.3048C160.639 20.3825 160.657 20.4706 160.675 20.5693C160.691 20.6614 160.705 20.7471 160.718 20.8264L156.633 21.8428L156.37 20.785L159.291 20.0583L158.536 20.545C158.484 20.3379 158.402 20.1729 158.289 20.0499C158.181 19.9188 158.052 19.8305 157.904 19.7851C157.753 19.7332 157.587 19.7298 157.406 19.7748C157.225 19.8199 157.077 19.9014 156.962 20.0193C156.852 20.1291 156.78 20.2673 156.746 20.4338C156.71 20.5938 156.718 20.7773 156.769 20.9843L156.852 21.3143C156.908 21.5407 157.001 21.7235 157.132 21.8627C157.263 22.0019 157.423 22.0927 157.612 22.1349C157.8 22.1707 158.013 22.1588 158.253 22.0993C158.498 22.0381 158.691 21.9559 158.83 21.8526C158.976 21.7476 159.12 21.6088 159.262 21.4359L160.695 22.3058C160.505 22.6484 160.238 22.9416 159.893 23.1853C159.553 23.421 159.118 23.6048 158.588 23.7368ZM161.973 22.7916L160.652 17.4834L162.739 16.9643L163.137 18.5655L162.684 18.1939C162.743 17.7397 162.924 17.3647 163.229 17.0692C163.533 16.7737 163.934 16.5639 164.432 16.44L164.915 18.3808C164.815 18.392 164.725 18.4041 164.646 18.4169C164.573 18.4281 164.498 18.4434 164.42 18.4627C164.09 18.5448 163.84 18.6997 163.67 18.9275C163.505 19.1472 163.475 19.4674 163.579 19.8879L164.166 22.246L161.973 22.7916ZM169.376 20.9499L167.686 14.157L170.956 13.3434C171.59 13.1857 172.163 13.1532 172.674 13.2459C173.191 13.3371 173.624 13.5453 173.973 13.8707C174.32 14.1897 174.559 14.6111 174.689 15.1352C174.82 15.6592 174.806 16.1434 174.649 16.5879C174.49 17.0259 174.202 17.4031 173.786 17.7196C173.377 18.0344 172.855 18.2707 172.221 18.4284L170.222 18.9257L171.007 17.7309L171.666 20.3802L169.376 20.9499ZM173.442 19.9384L171.157 17.879L173.583 17.2755L175.887 19.33L173.442 19.9384ZM171.07 17.9832L169.792 17.1984L171.646 16.7373C171.963 16.6584 172.178 16.5293 172.292 16.3499C172.411 16.169 172.441 15.9556 172.38 15.7097C172.318 15.4639 172.193 15.2891 172.002 15.1854C171.818 15.0801 171.567 15.0669 171.25 15.1458L169.397 15.6069L170.157 14.315L171.07 17.9832ZM179.178 18.6762C178.609 18.8179 178.043 18.89 177.48 18.8926C176.917 18.8951 176.439 18.8356 176.044 18.7138L176.367 16.8612C176.737 16.9684 177.134 17.0311 177.557 17.0494C177.986 17.0596 178.388 17.018 178.763 16.9246C178.983 16.8699 179.151 16.8143 179.268 16.7579C179.389 16.6933 179.472 16.6279 179.518 16.5617C179.561 16.489 179.574 16.4138 179.554 16.3362C179.524 16.2133 179.432 16.1331 179.278 16.0958C179.124 16.0584 178.929 16.0452 178.691 16.0563C178.458 16.0592 178.203 16.0678 177.925 16.0821C177.645 16.0898 177.358 16.0822 177.064 16.0593C176.776 16.0347 176.5 15.9761 176.237 15.8837C175.98 15.7896 175.754 15.6398 175.558 15.4342C175.361 15.2222 175.218 14.935 175.128 14.5727C175.023 14.1522 175.044 13.7415 175.192 13.3407C175.345 12.9318 175.628 12.5659 176.042 12.243C176.463 11.9185 177.023 11.6693 177.721 11.4955C178.181 11.3812 178.646 11.3171 179.116 11.3031C179.587 11.2891 180.025 11.3381 180.431 11.4501L180.154 13.2809C179.776 13.1964 179.418 13.1515 179.08 13.1463C178.749 13.1394 178.434 13.173 178.137 13.2471C177.917 13.3018 177.747 13.3647 177.627 13.4357C177.507 13.5067 177.426 13.5818 177.384 13.6609C177.349 13.7385 177.34 13.8161 177.36 13.8938C177.389 14.0102 177.48 14.0871 177.634 14.1245C177.785 14.1554 177.977 14.1661 178.208 14.1567C178.446 14.1456 178.704 14.133 178.982 14.1188C179.267 14.1029 179.553 14.1073 179.841 14.1319C180.128 14.1565 180.401 14.2158 180.658 14.3099C180.921 14.4023 181.151 14.5513 181.346 14.7569C181.541 14.9625 181.683 15.2432 181.772 15.599C181.875 16.0131 181.85 16.4245 181.698 16.8334C181.55 17.2343 181.27 17.5993 180.857 17.9287C180.443 18.2516 179.883 18.5008 179.178 18.6762ZM186.274 16.9109C185.232 17.17 184.351 17.0906 183.628 16.6726C182.906 16.2546 182.418 15.5378 182.166 14.5221L181.236 10.7859L183.527 10.2162L184.439 13.8844C184.568 14.4019 184.753 14.7474 184.996 14.9206C185.236 15.0875 185.515 15.1314 185.832 15.0526C186.156 14.9721 186.382 14.8026 186.51 14.544C186.642 14.2774 186.645 13.8853 186.516 13.3677L185.603 9.69955L187.855 9.13945L188.784 12.8756C189.037 13.8913 188.942 14.753 188.5 15.4607C188.058 16.1684 187.316 16.6518 186.274 16.9109Z" fill="#0053CC"/>
</g>
<defs>
<clipPath id="clip0_32_2">
<rect width="314" height="150" fill="white"/>
</clipPath>
</defs>
</svg>
